<svg width="25" height="25" viewBox="0 0 25 25" fill="none" xmlns="http://www.w3.org/2000/svg">
<path d="M3.89961 6.01261C4.05653 6.01261 4.17162 5.99168 4.31814 5.87659L7.82332 3.2294C8.00117 3.10386 8.09533 2.93641 8.09533 2.75855C8.09533 2.53882 7.99068 2.36096 7.81283 2.19355C7.41524 1.83779 6.70372 1.639 6.07595 1.639C4.43323 1.639 3.13582 2.9469 3.13582 4.57913C3.13582 4.96627 3.19859 5.35342 3.30318 5.59409C3.41832 5.85565 3.6485 6.01261 3.89961 6.01261ZM21.0906 6.01261C21.3522 6.01261 21.5614 5.84516 21.687 5.59409C21.8021 5.36391 21.8649 4.96627 21.8649 4.57913C21.8649 2.9469 20.557 1.639 18.9143 1.639C18.2969 1.639 17.5854 1.83779 17.1878 2.19355C17.0099 2.36096 16.9053 2.53882 16.9053 2.75855C16.9053 2.93641 16.9995 3.10386 17.1669 3.2294L20.6721 5.87659C20.8185 5.99168 20.9336 6.01261 21.0906 6.01261ZM3.74265 23.0362C4.06702 23.3605 4.5797 23.3605 4.90408 23.0257L6.55725 21.383C8.22091 22.6072 10.2717 23.3396 12.5003 23.3396C14.729 23.3396 16.7797 22.6072 18.4434 21.383L20.0966 23.0257C20.4209 23.3605 20.9336 23.3605 21.2475 23.0362C21.551 22.7327 21.5614 22.2201 21.2371 21.9061L19.6467 20.3262C21.415 18.5265 22.5032 16.0573 22.5032 13.3368C22.5032 7.81226 18.0249 3.32355 12.5003 3.32355C6.97577 3.32355 2.49756 7.81226 2.49756 13.3368C2.49756 16.0573 3.58573 18.5265 5.34354 20.3262L3.75314 21.9061C3.43921 22.2201 3.43921 22.7327 3.74265 23.0362ZM12.5003 21.5504C7.9593 21.5504 4.27626 17.8778 4.27626 13.3368C4.27626 8.80627 7.9593 5.12324 12.5003 5.12324C17.0309 5.12324 20.7035 8.80627 20.7035 13.3368C20.7035 17.8778 17.0309 21.5504 12.5003 21.5504ZM7.73957 14.4878H12.4899C12.8979 14.4878 13.2223 14.1739 13.2223 13.7658V7.42511C13.2223 7.01708 12.8979 6.6927 12.4899 6.6927C12.0818 6.6927 11.7679 7.01708 11.7679 7.42511V13.0334H7.73957C7.32104 13.0334 7.00716 13.3577 7.00716 13.7658C7.00716 14.1739 7.32104 14.4878 7.73957 14.4878Z" fill="#EF1D26"/>
</svg>
