<svg width="110" height="110" viewBox="0 0 110 110" fill="none" xmlns="http://www.w3.org/2000/svg">
<path d="M55 11C30.7001 11 11 30.7001 11 55C11 79.2999 30.7001 99 55 99C79.2999 99 99 79.2999 99 55C99 30.7001 79.2999 11 55 11ZM96.1388 55C96.1388 77.7192 77.7218 96.1388 55 96.1388C32.2782 96.1388 13.8612 77.7192 13.8612 55C13.8612 32.2808 32.2808 13.8612 55 13.8612C77.7192 13.8612 96.1388 32.2808 96.1388 55Z" fill="#6F6F6F"/>
<path d="M55.0002 28.926V30.3556C68.5878 30.3556 79.6446 41.4098 79.6446 55.0001H81.0742C81.0742 40.6007 69.3996 28.926 55.0002 28.926ZM55.0002 79.6446C41.4125 79.6446 30.3557 68.5904 30.3557 55.0001H28.9261C28.9261 69.3995 40.6007 81.0742 55.0002 81.0742" fill="#6F6F6F"/>
<path d="M76.0674 36.4323C76.6645 37.0689 77.5252 38.0956 78.0085 38.7193L86.9099 33.1083C86.4654 32.5307 85.7572 31.6529 85.2274 31.0343L79.5903 34.7356L79.2052 35.0642L79.4921 34.6484L81.9811 29.7149L80.2209 27.9669L75.2507 30.4388L74.832 30.7237L75.1654 30.3413L78.895 24.7456C78.2385 24.1912 77.6079 23.6829 76.8041 23.0669L71.1541 31.8993C71.87 32.446 72.8134 33.2495 73.4156 33.7962L78.7348 31.0548L79.0759 30.8058L78.8252 31.1447L76.0674 36.4323Z" fill="#6F6F6F"/>
<path d="M55.8686 25.2386L58.3007 19.8278L58.4558 19.3478L58.4119 19.8483L58.6678 27.079C59.5207 27.1586 60.402 27.2767 61.2705 27.4204L60.875 16.7117C59.6603 16.5782 58.4506 16.4832 57.241 16.4319L54.8451 22.3381L54.7598 22.7771L54.6745 22.3381L52.2811 16.4319C51.0715 16.4832 49.8619 16.5782 48.6472 16.7117L48.2517 27.4204C49.1201 27.2767 50.0015 27.1612 50.8544 27.079L51.1103 19.8483L51.0664 19.3478L51.2214 19.8278L53.6536 25.2386H55.8686Z" fill="#6F6F6F"/>
<path d="M36.1968 33.7733C37.6028 32.3025 38.3989 30.6032 36.9928 28.981C36.2278 28.1006 34.9432 27.9081 33.8783 28.3419L33.7724 28.3829L33.806 28.2905C33.9636 27.8721 34.0644 26.5374 32.9195 25.6159C32.3612 25.1667 31.6607 24.9999 30.9526 25.0717C29.6318 25.2052 28.616 26.101 25.8505 29.1633C25.0157 30.0873 23.8009 31.5453 23.072 32.4898L30.6682 39.6461C33.1857 36.8791 34.2118 35.8498 36.1968 33.7733ZM26.2847 32.0227C27.8148 30.1643 29.4405 28.4779 30.1772 27.8105C30.4098 27.6001 30.6631 27.3896 30.9706 27.3074C31.4695 27.1714 31.9838 27.5231 32.1001 28.0313C32.2164 28.5421 31.8934 29.0272 31.5341 29.4276C30.7251 30.3337 27.758 33.4165 27.758 33.4165L26.2847 32.0227ZM29.2596 34.8256C29.2596 34.8256 32.1492 31.7917 33.0926 30.8214C33.4674 30.4364 33.7078 30.2028 33.9662 30.077C34.2996 29.9153 34.6641 29.882 34.9897 30.0976C35.3102 30.3106 35.4576 30.6777 35.3774 31.0422C35.2818 31.476 34.9251 31.8892 34.6305 32.2049C34.2324 32.6285 30.8052 36.2708 30.8001 36.2759L29.2596 34.8256Z" fill="#6F6F6F"/>
<path d="M55.0002 28.926V55.0001H28.9261C28.9261 40.5903 40.5904 28.926 55.0002 28.926Z" fill="#0066B1"/>
<path d="M81.0741 55C81.0741 69.4098 69.4098 81.0741 55 81.0741V55H81.0741Z" fill="#0066B1"/>
</svg>
