<svg width="25" height="25" viewBox="0 0 25 25" fill="none" xmlns="http://www.w3.org/2000/svg">
<path d="M2.50496 12.47C3.41746 14.4909 4.97152 16.6803 6.7684 18.4772C8.68496 20.3937 10.7993 21.9116 12.7221 22.7503C13.769 23.2072 14.7056 23.4356 15.494 23.4356C16.2778 23.4356 16.915 23.2094 17.3671 22.7569L19.1809 20.9437C19.7318 20.3922 19.6825 19.4459 19.0706 18.8337L16.3981 16.1609C15.7856 15.5491 14.8387 15.5 14.2881 16.0509L13.4559 16.8831C13.2253 17.0556 11.8 16.6166 10.1965 15.0131C8.59215 13.4091 8.15215 11.9828 8.32558 11.7544L9.15871 10.9213C9.70965 10.37 9.66027 9.42312 9.0484 8.81125L6.37527 6.13875C5.76277 5.52687 4.81652 5.47719 4.26527 6.02875L2.45215 7.84188C1.54684 8.74687 1.56559 10.3906 2.50465 12.47H2.50496ZM3.33621 8.72563L5.14965 6.9125C5.16215 6.9 5.18715 6.8925 5.21933 6.8925C5.28996 6.8925 5.39715 6.92781 5.49183 7.0225L8.16433 9.695C8.30246 9.83313 8.31433 9.99781 8.27465 10.0375L7.44152 10.8703C6.4059 11.9066 7.59871 14.1831 9.31246 15.8969C10.1659 16.75 11.1043 17.4319 11.955 17.8159C13.355 18.4484 14.0496 18.0572 14.3387 17.7675L15.1718 16.9347C15.2118 16.8947 15.3759 16.9069 15.5143 17.0447L18.1865 19.7175C18.3246 19.8556 18.3365 20.02 18.2968 20.0597L16.4834 21.8731C15.9803 22.3766 14.7612 22.2763 13.2221 21.6044C11.439 20.8266 9.4609 19.4019 7.65215 17.5934C5.95777 15.8991 4.49715 13.8438 3.64402 11.9553C2.95465 10.4294 2.83934 9.22219 3.3359 8.72563H3.33621ZM23.2175 13.8553C23.2175 7.07719 17.7028 1.5625 10.9246 1.5625V2.8125C17.0137 2.8125 21.9675 7.76656 21.9675 13.8553H23.2175Z" fill="#EF1D26"/>
<path d="M11.156 4.97721V6.22721C15.4904 6.22721 19.0169 9.75346 19.0169 14.0878H20.2669C20.2669 9.06409 16.1794 4.97721 11.156 4.97721Z" fill="#EF1D26"/>
<path d="M15.8344 14.0863H17.0844C17.0844 10.8176 14.4251 8.15755 11.156 8.15755V9.40755C13.7357 9.40755 15.8344 11.5066 15.8344 14.0863Z" fill="#EF1D26"/>
</svg>
