<svg width="28" height="28" viewBox="0 0 28 28" fill="none" xmlns="http://www.w3.org/2000/svg">
<path d="M23.7998 10.9375H26.2498C26.4913 10.9375 26.6873 11.1326 26.6873 11.375V12.25C26.6873 12.4915 26.5018 12.7487 26.2717 12.8257" stroke="#EF1D26" stroke-miterlimit="10" stroke-linecap="round" stroke-linejoin="round"/>
<path d="M5.6875 23.625V25.8125C5.6875 26.2955 5.29637 26.6875 4.8125 26.6875H3.0625C2.57863 26.6875 2.1875 26.2955 2.1875 25.8125V23.625" stroke="#EF1D26" stroke-miterlimit="10" stroke-linecap="round" stroke-linejoin="round"/>
<path d="M25.8125 23.1875V25.8125C25.8125 26.2955 25.4214 26.6875 24.9375 26.6875H23.1875C22.7036 26.6875 22.3125 26.2955 22.3125 25.8125V23.1875" stroke="#EF1D26" stroke-miterlimit="10" stroke-linecap="round" stroke-linejoin="round"/>
<path d="M4.2 10.9375H1.75C1.5085 10.9375 1.3125 11.1326 1.3125 11.375V12.25C1.3125 12.4915 1.498 12.7487 1.72813 12.8257" stroke="#EF1D26" stroke-miterlimit="10" stroke-linecap="round" stroke-linejoin="round"/>
<path d="M25.8125 23.1875H2.1875C1.70363 23.1875 1.3125 22.7955 1.3125 22.3125V21.4375H26.6875V22.3125C26.6875 22.7955 26.2964 23.1875 25.8125 23.1875Z" stroke="#EF1D26" stroke-miterlimit="10" stroke-linecap="round" stroke-linejoin="round"/>
<path d="M1.3125 19.6875V16.625C1.3125 14.0543 4.44763 13.5625 14 13.5625C23.5524 13.5625 26.6875 14.0551 26.6875 16.625V19.4145" stroke="#EF1D26" stroke-miterlimit="10" stroke-linecap="round" stroke-linejoin="round"/>
<path d="M26.6875 17.0625V19.6875H21.4375V17.9375C21.4375 17.4536 21.8286 17.0625 22.3125 17.0625H24.9375" stroke="#EF1D26" stroke-miterlimit="10" stroke-linecap="round" stroke-linejoin="round"/>
<path d="M3.0625 17.0625H5.6875C6.17137 17.0625 6.5625 17.4536 6.5625 17.9375V19.6875H1.3125V17.0625" stroke="#EF1D26" stroke-miterlimit="10" stroke-linecap="round" stroke-linejoin="round"/>
<path d="M8.3125 19.6875V18.8125C8.3125 17.85 9.1 17.0625 10.0625 17.0625H17.9375C18.9 17.0625 19.6875 17.85 19.6875 18.8125V19.6875" stroke="#EF1D26" stroke-miterlimit="10" stroke-linecap="round" stroke-linejoin="round"/>
<path d="M3.58838 13.9974L4.907 7.40338C5.09688 6.45575 5.97538 5.38038 6.93 5.22725C8.232 5.0155 10.0713 4.8125 14 4.8125C17.9288 4.8125 19.768 5.0155 21.0709 5.22725C22.0255 5.38125 22.904 6.45575 23.0939 7.40338L24.4143 14.007" stroke="#EF1D26" stroke-miterlimit="10" stroke-linecap="round" stroke-linejoin="round"/>
</svg>
