<svg width="15" height="15" viewBox="0 0 15 15" fill="none" xmlns="http://www.w3.org/2000/svg">
<path d="M8.65542 7.5L6.09292 10.0625L6.66667 10.6571L9.82375 7.5L6.66667 4.34292L6.09292 4.9375L8.65542 7.5ZM7.50271 15C6.46562 15 5.49056 14.8032 4.5775 14.4096C3.66458 14.016 2.87042 13.4818 2.195 12.8071C1.51958 12.1324 0.98493 11.3389 0.591042 10.4267C0.197014 9.51458 0 8.53993 0 7.50271C0 6.46562 0.196805 5.49056 0.590417 4.5775C0.984028 3.66458 1.51819 2.87042 2.19292 2.195C2.86764 1.51958 3.66111 0.98493 4.57333 0.591042C5.48542 0.197014 6.46007 0 7.49729 0C8.53438 0 9.50945 0.196806 10.4225 0.590417C11.3354 0.984028 12.1296 1.51819 12.805 2.19292C13.4804 2.86764 14.0151 3.66111 14.409 4.57333C14.803 5.48542 15 6.46007 15 7.49729C15 8.53438 14.8032 9.50944 14.4096 10.4225C14.016 11.3354 13.4818 12.1296 12.8071 12.805C12.1324 13.4804 11.3389 14.0151 10.4267 14.409C9.51458 14.803 8.53993 15 7.50271 15ZM7.5 14.1667C9.36111 14.1667 10.9375 13.5208 12.2292 12.2292C13.5208 10.9375 14.1667 9.36111 14.1667 7.5C14.1667 5.63889 13.5208 4.0625 12.2292 2.77083C10.9375 1.47917 9.36111 0.833333 7.5 0.833333C5.63889 0.833333 4.0625 1.47917 2.77083 2.77083C1.47917 4.0625 0.833333 5.63889 0.833333 7.5C0.833333 9.36111 1.47917 10.9375 2.77083 12.2292C4.0625 13.5208 5.63889 14.1667 7.5 14.1667Z" fill="white"/>
</svg>
