<svg width="119" height="119" viewBox="0 0 119 119" fill="none" xmlns="http://www.w3.org/2000/svg">
<path fill-rule="evenodd" clip-rule="evenodd" d="M37.4837 14.9915L38.5743 14.8384L40.7553 14.5316L41.8459 14.3782L42.9365 14.2252L44.0271 14.0718L45.1176 13.9187L46.2083 13.7653L47.2989 13.6123L50.5705 13.1521L51.6612 12.999L52.7518 12.8456L53.8423 12.6926L54.933 12.5392L56.0235 12.3858L58.2045 12.079L59.4766 11.9001L60.7431 12.0793L62.9128 12.3861L63.9975 12.5392L65.0826 12.6926L66.1673 12.8456L67.2523 12.999L68.3374 13.1521L71.5921 13.6123L72.6769 13.7653L73.7619 13.9187L74.8469 14.0721L75.9316 14.2255L77.0167 14.3786L78.102 14.5316L80.2715 14.8387L81.3565 14.9918L82.4412 15.1452L83.5262 15.2983L84.6113 15.4517L85.696 15.6047L86.781 15.7581L87.8657 15.9112L88.9508 16.0646L90.0358 16.218L91.1205 16.3713L92.2056 16.5241L93.2906 16.6778L95.4962 16.9888V20.2626L95.5036 20.2636V25.8325L95.4962 25.8312V27.3444L95.5779 27.3748L95.803 32.8723L95.8407 37.3283L95.7326 41.5958L95.4849 45.6805L95.1041 49.5876L94.5968 53.3216L93.9691 56.8887L93.2283 60.2933L92.3802 63.541L91.4315 66.6359L90.3894 69.5839L89.2595 72.3895L88.0501 75.0582L86.7668 77.5943L85.4173 80.0032L84.008 82.2897L82.5468 84.4595L81.0394 86.517L79.4938 88.4682L77.9167 90.3175L76.3156 92.0709L74.6968 93.7332L73.0679 95.3101L71.4358 96.8068L69.808 98.2293L68.1904 99.5823L66.5906 100.872L65.0157 102.103L63.4728 103.28L61.9683 104.411L60.5099 105.498L58.3644 107.1L55.43 105.14L53.297 103.619L51.2196 102.038L49.1993 100.396L47.2381 98.692L45.3378 96.926L43.5 95.0978L41.7268 93.2065L40.0202 91.2523L38.3817 89.2345L36.8134 87.1527L35.3169 85.0066L33.8944 82.796L32.5472 80.5205L31.2777 78.1798L30.0871 75.7736L28.9778 73.3021L27.9511 70.7642L27.0094 68.1601L26.1535 65.4895L25.3859 62.7527L24.7078 59.9487L24.1209 57.0776L23.627 54.1386L23.2281 51.1322L22.9248 48.0579L22.72 44.9152L22.6143 41.7037L22.61 38.4231L22.7081 35.0727L22.9106 31.6532L23.275 27.5272V23.1599L23.2825 23.159V22.8741L23.275 22.8751V16.9881L25.4873 16.6775L26.5778 16.5241L27.6685 16.371L28.759 16.2176L29.8496 16.0646L30.9403 15.9112L32.0307 15.7581L33.1214 15.6047L34.212 15.4517L35.3025 15.2983L36.3932 15.1452L37.4837 14.9915Z" fill="white"/>
<path fill-rule="evenodd" clip-rule="evenodd" d="M24.5843 28.4676C47.8035 18.4776 71.0225 19.582 94.242 28.4676C97.0766 78.6377 73.0453 94.549 58.3247 105.604C35.1151 90.5822 20.7714 65.6453 24.5843 28.4676Z" fill="#231F20"/>
<path fill-rule="evenodd" clip-rule="evenodd" d="M26.3222 29.6313C28.1487 28.8685 29.9877 28.1784 31.8516 27.51L36.0913 26.1747L40.3292 25.0832L44.5655 24.2293L48.8017 23.609L53.0379 23.217L57.2749 23.0487L61.513 23.0991L65.7533 23.3642L69.9966 23.8389L74.2428 24.5187L78.4925 25.4003L82.7454 26.4782L87.002 27.748C88.8323 28.3544 90.6497 28.9767 92.4565 29.6526L92.6002 33.1967L92.637 37.5417L92.5321 41.6949L92.2934 45.6623L91.9266 49.449L91.4393 53.0606L90.838 56.5033L90.1295 59.7817L89.3199 62.9025L88.4164 65.8715L87.4253 68.6938L86.3532 71.3761L85.2065 73.9236L83.9913 76.3423L82.7138 78.6381L81.3808 80.8167L79.9973 82.8842L78.5703 84.846L77.1062 86.7073L75.6101 88.474L74.0884 90.1516L72.5477 91.7453L69.4321 94.7025L66.3123 97.3892C64.8001 98.6165 63.2755 99.818 61.7323 101.004C60.5843 101.872 59.4337 102.738 58.2834 103.602L55.0264 101.319L53.0422 99.7982L51.1138 98.2197L49.244 96.5839L47.4334 94.8898L45.6843 93.1373L43.9975 91.3258L42.3752 89.455L40.8183 87.5243L39.3287 85.5334L37.9078 83.4813L36.5573 81.3676L35.2781 79.1921L34.0727 76.9541L32.9418 74.6525L31.8879 72.2877L30.9117 69.8577L30.0155 67.3631L29.2007 64.8022L28.469 62.1755L27.822 59.4814L27.2615 56.7197L26.7891 53.8896L26.407 50.991L26.1163 48.0226L25.9195 44.9842L25.818 41.8754L25.8138 38.6958L25.9084 35.4443L26.104 32.1207L26.3222 29.6313ZM65.8208 87.7177C66.0601 87.059 65.237 87.2446 65.1114 86.9732C64.9857 86.7014 65.0371 86.3921 65.4643 86.0029C66.4202 85.4349 67.4736 85.7521 68.5073 85.8921C68.763 85.9843 68.7995 86.3716 68.6167 87.0539L67.8766 89.2667C67.511 89.405 66.954 89.4603 66.5884 89.5987C66.2778 89.783 66.2229 89.9306 66.4241 90.0412C66.7163 90.115 67.036 89.9674 67.3286 90.0412C66.179 95.4456 60.0976 93.3515 62.1517 90.8565C64.1032 92.0293 64.1758 89.3043 62.8877 89.5433C61.2672 89.8441 61.2243 91.2458 61.2156 91.7285C61.1713 94.1722 67.1132 95.5325 68.5893 89.9859C69.0556 89.7463 69.4118 89.8108 69.8778 89.571C70.0518 89.4695 70.0609 89.2684 69.9052 89.1669C69.622 89.1577 69.1195 89.2342 68.8363 89.2251C69.0359 88.5334 69.2907 87.5083 69.4906 86.817C69.6976 86.1024 69.6282 86.269 70.3838 86.2C71.806 86.0705 73.3628 86.6196 74.7843 85.2282C70.7245 86.3845 65.9833 83.2261 63.9656 86.4031C63.7186 86.792 63.6957 87.0559 63.818 87.4414C64.047 88.1618 65.1676 88.332 65.8208 87.7177ZM47.8525 91.2145C47.3847 93.0442 50.2469 93.9144 51.4086 93.2878C52.5705 92.6612 53.2269 91.1603 51.9327 90.1147C49.7415 89.1947 45.7777 87.5481 48.4919 84.8029C49.4307 84.5616 50.2416 84.227 51.834 85.3265C52.0628 85.2573 52.2916 85.188 52.5205 85.1188C53.0486 86.0521 53.0696 86.3914 53.0696 87.4738C52.795 87.1276 52.5205 86.7812 52.2458 86.4348C51.8568 86.2039 51.4678 85.9731 51.0789 85.7421C49.7121 85.2057 48.7187 85.4241 49.5687 87.0582C51.8919 88.5753 54.6067 89.1282 54.0175 92.0457C53.9102 93.2021 52.4932 94.1381 51.7696 94.232C48.3567 94.277 46.9386 93.6878 46.8228 91.0066C46.8765 90.2298 47.2886 89.814 48.0584 89.7597C49.2392 89.6133 49.3547 90.7171 48.6762 91.4223C48.4016 91.353 48.127 91.2838 47.8525 91.2145ZM48.6984 32.7805C48.5676 31.6354 48.604 31.3134 50.1976 30.611C51.4443 30.0404 52.5087 30.0062 53.7474 29.6406C54.375 28.8869 54.6482 28.9199 55.452 28.7174C55.473 28.5491 55.4939 28.3806 55.5146 28.2123C54.9333 27.8061 54.6411 27.5681 54.201 27.013C54.222 26.8237 54.2428 26.6342 54.2636 26.445C54.4304 26.4659 54.5971 26.4869 54.764 26.5082C54.7016 26.3184 54.6389 26.1291 54.5764 25.9399C55.181 25.9819 55.7859 26.0242 56.3904 26.0662C56.3904 25.8979 56.3904 25.7297 56.3904 25.5611C56.3904 25.2876 56.3904 25.0141 56.3904 24.7405C56.4476 24.4722 56.5728 24.4092 56.7656 24.5513C57.1412 25.0141 57.5164 25.4771 57.892 25.9399C57.9333 25.4348 58.026 25.0325 58.0677 24.5274C58.0783 24.2591 58.224 24.1964 58.5056 24.3382C58.8808 25.0538 59.2057 25.6664 59.5809 26.382C60.4024 26.0775 61.5421 26.2015 62.7711 26.445C62.6878 26.5922 62.6045 26.7395 62.5208 26.8867C62.9797 27.034 63.4383 27.1815 63.8972 27.3288C63.8765 27.4548 63.8555 27.5813 63.8348 27.7073C65.2257 27.8578 65.9206 28.0396 67.2127 28.5911C66.4828 28.8014 65.753 29.0119 65.0232 29.2225C64.6163 29.4117 64.6163 29.6009 65.0232 29.7905C66.4202 30.2736 67.8172 30.9117 69.2145 32.6309C69.1728 32.7572 69.1312 32.8835 69.0895 33.0097C67.4807 31.7794 66.0372 31.1045 64.8356 31.2424C64.7155 31.4526 64.7991 31.6631 65.0855 31.8734C66.6078 33.0388 68.1301 33.7596 69.6524 33.8303C68.401 34.0841 67.15 34.0815 65.899 33.5145C65.8266 33.767 65.682 34.0195 65.899 34.2721C66.7928 34.8291 67.4332 35.4585 69.3395 35.7239C69.3395 35.8502 68.9329 35.8738 68.9329 36C67.6819 36.0714 66.8374 35.6445 65.5861 35.0296C65.3465 35.1504 65.2422 35.34 65.2735 35.5977C66.1744 36.9401 67.0312 38.3264 68.2134 39.385C68.0884 39.4273 67.9631 39.4693 67.8382 39.5112C66.2752 38.475 65.6329 37.6715 64.7103 36.797C64.6021 37.0496 64.3851 37.3021 64.7103 37.5546C65.7488 38.6038 66.6785 39.3972 68.1511 41.4682C68.0936 41.7365 67.9683 41.7995 67.7755 41.6574C66.4835 40.3534 66.469 40.4429 64.648 40.2055C64.7071 41.6429 67.0451 41.5825 68.4362 43.8904C68.3322 43.9324 68.3804 44.0771 68.2761 44.1191C66.9995 43.4413 67.0702 43.492 65.6487 43.8036C66.1909 44.1824 66.7331 44.5612 67.2753 44.9396C67.2753 45.0662 67.2753 45.1922 67.2753 45.3188C66.3559 44.9345 65.556 44.9115 64.7729 44.9396C65.5028 45.529 66.2326 46.118 66.9624 46.7073C67.2178 46.9021 67.1345 47.028 66.7124 47.0861C65.92 46.8123 65.1275 46.5388 64.335 46.2656C65.1692 47.0438 65.8509 47.617 66.6847 48.3956C66.8881 48.7008 66.7864 48.869 66.5833 48.9007C65.0452 47.9616 64.8514 47.5602 63.1464 47.9697C63.1464 48.2012 63.1464 48.4324 63.1464 48.6643C64.7371 48.6643 64.5634 48.4699 65.5234 49.737C64.8327 49.4154 64.6531 49.3586 63.8972 49.3586C64.2379 50.0316 64.397 50.7052 65.4611 51.3785C67.0596 52.6024 63.3504 51.1211 62.7088 50.2421C61.9996 49.7477 61.2908 49.3899 60.5817 49.169C60.4286 49.8003 60.3266 50.4313 60.5817 51.0627C61.3531 52.3463 62.1246 53.6296 62.8964 54.9132C63.5426 55.6075 64.1384 56.4045 64.7846 57.0988C65.6397 57.7301 66.1386 58.4125 66.9934 59.0438C69.1502 60.8796 71.6112 62.1029 71.5915 65.3283C76.8275 66.8238 77.6561 57.7531 76.9712 56.8621C74.5341 51.3168 76.2159 47.1007 79.6612 44.6871C79.6612 44.8137 79.6612 44.9396 79.6612 45.0662C78.0569 46.9005 77.7268 47.4065 77.0338 49.737C77.1339 50.1568 77.1255 50.722 77.6593 50.5576C78.3775 49.6744 79.21 48.9371 80.1617 48.2855C80.5838 48.3591 80.6674 48.5693 80.412 48.9165C79.1367 50.8725 78.8532 51.2684 78.5978 53.5876C78.7644 53.6719 78.9314 53.7559 79.0983 53.8402C79.5988 53.2718 80.0991 52.7038 80.5996 52.1357C80.98 52.2988 81.022 52.5304 80.7246 52.83C79.2265 53.9642 80.7624 59.472 80.412 61.478C79.9263 64.2568 78.3423 65.14 76.1581 66.8435C76.668 68.9654 76.5478 69.3839 76.0331 71.5143C75.8626 70.0685 76.1577 69.1576 74.9697 68.3583C74.8896 71.2711 72.8322 73.0085 73.2178 72.7769C73.801 71.0541 74.2886 70.6563 73.5934 68.9893C73.305 69.8622 72.9785 70.7167 72.6549 71.5776C72.7638 70.7179 72.7806 67.4422 72.5926 67.727C72.4047 67.748 72.2171 67.769 72.0294 67.79C70.8847 71.5701 69.8271 72.5518 66.7124 74.7968C66.2742 75.0913 65.8363 75.3858 65.3984 75.6804C65.0994 76.9633 65.3171 77.3018 65.7114 78.5841C65.9406 79.0891 66.1699 79.594 66.3995 80.099C66.3995 81.2739 66.4573 81.2294 65.7114 82.119C65.1068 82.3504 64.502 82.5819 63.8972 82.8133C62.9587 83.7392 62.0206 84.6649 61.0822 85.5908C60.913 86.8708 60.8332 86.5717 59.5809 86.9164C59.6642 87.2531 59.7475 87.5896 59.8312 87.9263C58.3583 89.0556 57.9618 89.189 56.1404 89.5674C56.0358 89.3992 55.9318 89.2308 55.8275 89.0624C56.0985 88.4943 56.3697 87.9263 56.6407 87.3581C57.2629 86.5797 57.7573 85.4014 58.7675 85.4014C58.7885 85.233 58.8094 85.0648 58.8301 84.8965C59.2263 84.6018 59.7243 84.3071 60.1205 84.0127C61.1629 83.0027 62.1039 81.9927 63.1464 80.9829C63.3792 80.6039 63.3737 80.2251 63.3343 79.8466C63.1464 79.5099 62.9587 79.1732 62.7711 78.8367C62.5628 78.3316 62.3542 77.8266 62.1456 77.3217C61.8953 77.3637 61.6451 77.4058 61.3948 77.448C61.027 78.5618 61.3299 78.6288 60.1438 78.4579C59.122 77.974 58.1003 77.49 57.0786 77.0061C56.2028 76.8797 55.327 76.7535 54.4513 76.6274C53.4497 76.5107 52.9774 76.536 52.1367 75.9961C51.6362 76.0171 51.1359 76.0381 50.6354 76.0591C50.5311 76.1854 50.4268 76.3117 50.3226 76.4379C48.5624 76.5055 48.9806 76.5555 47.5858 75.3018C47.3565 74.7545 46.9237 74.2075 46.6943 73.6608C48.041 73.4415 48.7862 73.3643 50.1348 73.5342C50.3644 73.7028 50.5937 73.871 50.823 74.0392C52.1445 74.1416 52.9454 74.0315 54.076 74.7335C55.1604 74.986 56.2444 75.2386 57.3288 75.4911C57.8084 75.4491 58.2879 75.4068 58.7675 75.3648C58.8928 75.0913 59.0181 74.8178 59.143 74.5443C59.0597 74.2075 58.9761 73.871 58.8928 73.5342C57.8497 72.9313 57.1457 71.7 57.0272 70.3563C57.0272 70.3563 56.0558 69.3426 55.8682 68.522C55.4736 66.5777 54.3586 64.9908 56.2008 64.6327C56.4857 64.1241 54.7355 63.1514 54.201 62.7403C51.9846 60.9103 49.6698 59.5182 49.3842 56.4914C48.9256 56.4701 48.4668 56.4491 48.0079 56.4281C46.5449 56.564 46.625 56.3147 45.6308 55.355C44.4156 54.9601 43.3888 54.2348 42.5031 53.2718C42.5031 53.2718 41.6899 52.6999 41.252 52.6999C40.6409 52.6999 41.4203 56.5259 41.1895 56.9961C41.8398 57.6526 41.8916 57.5212 41.815 58.448C42.412 59.171 42.7321 59.348 42.8158 60.2787C42.8993 60.5099 42.9828 60.7414 43.0661 60.973C44.2641 61.2148 43.883 60.9381 44.0827 62.0461C44.2078 62.7403 44.067 63.6242 44.067 63.6242C43.9835 63.9397 43.9002 64.2552 43.8168 64.5707C43.8168 64.5707 43.0035 64.3185 42.6282 63.9397C41.7821 63.0859 41.7137 63.33 41.8776 62.1723C41.3635 61.9501 41.3277 61.8216 41.0018 61.3518C41.0018 61.3518 41.1895 61.1625 40.7516 60.8467C40.0322 60.3284 40.1885 60.4443 40.1885 59.5211C40.1885 59.016 40.1885 59.016 40.1885 58.7005C40.1885 58.385 40.4388 58.448 40.1261 57.7537C39.8132 57.0594 39.9384 57.5645 39.563 56.6176C39.3662 56.2108 39.5416 55.4797 39.5005 55.355C39.0918 54.2267 39.1101 53.8505 39 53.9035C38.9584 54.2819 38.9166 54.6607 38.8749 55.0395C38.8749 55.2078 38.8749 55.376 38.8749 55.5446C38.4929 56.3306 38.354 56.6186 37.8115 57.5012C37.0753 57.7133 36.6228 57.8354 36.6228 56.6806C36.6228 55.4767 36.6017 55.3347 37.1234 54.2819C37.1858 54.0084 37.2485 53.7349 37.3109 53.4614C37.3109 53.4614 37.3109 53.0196 37.3109 52.5778C37.3109 51.2739 37.5138 49.8323 38.3744 48.7902C38.9056 48.1469 39.4815 46.1012 39.6881 45.3188C39.7938 44.2521 39.5682 44.1685 40.5012 43.7406C40.6284 43.0989 42.1256 43.0321 42.5657 43.2985C42.8784 43.4881 43.4414 44.0561 43.4414 44.0561C44.6177 44.783 45.805 45.3972 46.8195 46.5811C47.2781 46.5811 47.737 46.5811 48.1956 46.5811C48.5919 46.2866 48.988 45.9917 49.3842 45.6972C49.4298 45.1754 51.0871 44.1662 51.4721 44.3955C52.1077 42.8558 52.707 42.1628 53.9351 40.9237C53.6891 40.8556 56.1124 36.7157 56.5154 36.7341C56.6026 36.2958 56.9068 34.9751 56.3397 34.8401C55.6028 35.0632 53.552 34.7564 53.2001 34.1458C52.9708 34.1458 52.8941 34.2485 52.6645 34.2485C52.4353 34.3115 52.2058 34.3747 51.9764 34.4377C51.4535 34.8772 51.3431 34.6008 50.7487 34.8007C50.3745 34.8007 49.8093 34.9312 49.6794 34.6315C49.4571 34.1177 49.9404 34.1816 50.26 34.1458C50.406 34.1038 50.5519 34.0618 50.6979 34.0195C51.3779 33.7909 50.8258 33.7573 50.385 33.5145C50.2183 33.5564 50.0515 33.5988 49.8848 33.6407C49.7387 33.6407 49.5927 33.6407 49.4468 33.6407C49.3217 33.6407 49.1965 33.6407 49.0715 33.6407C48.5598 33.3185 48.7678 33.3895 48.6984 32.7805ZM50.0137 31.7219C50.2444 31.7219 50.4134 31.9593 50.3901 32.2505C50.3668 32.5412 50.1595 32.7785 49.9287 32.7785C49.6981 32.7785 49.5289 32.5412 49.5523 32.2505C49.5756 31.9593 49.783 31.7219 50.0137 31.7219ZM39.7677 50.1604C40.6016 50.0057 41.4575 49.8895 42.564 50.1091C43.1116 50.2353 44.2661 50.5008 44.8519 50.4168C44.3723 49.7713 44.0302 49.0473 43.5299 48.4159C43.1085 47.9435 42.6219 47.5444 42.2589 47.0309C41.7339 46.7287 41.6047 46.6754 41.0389 46.8769C40.571 47.255 40.5297 47.5453 40.327 48.1082C40.327 48.9891 40.2238 49.4238 39.7677 50.1604ZM52.105 44.9781C51.882 45.1825 51.9023 45.3872 52.166 45.5916C53.4886 45.4667 53.8135 45.2115 55.0234 45.7143C55.5298 45.755 56.1808 45.3701 55.6922 44.9781C54.6906 44.1753 53.3007 44.7698 52.105 44.9781ZM54.7195 42.7082C54.6262 44.8989 58.1048 38.8376 58.3066 38.5977C58.5902 37.6573 58.4684 37.2888 57.9417 37.4936C56.8677 39.2316 55.7933 40.9699 54.7195 42.7082ZM56.6042 29.8247C56.9055 29.8247 57.1512 30.0317 57.1512 30.2849C57.1512 30.5384 57.0879 30.745 56.7866 30.745C56.4853 30.745 56.1786 30.3543 56.1786 30.1008C56.1786 29.8476 56.3029 29.8247 56.6042 29.8247ZM41.9517 52.5856C43.2283 53.1174 43.9104 53.8909 44.7485 54.3032C45.6835 54.7637 46.1466 54.3442 45.7213 53.8124C44.1545 53.0083 42.7317 51.8719 41.9517 52.5856ZM39.7629 50.3771C40.2333 50.6487 40.2366 50.7194 40.1277 51.4198C40.1755 52.2378 40.1094 53.4526 39.4589 51.9107C39.3779 51.7473 39.2969 51.5835 39.2157 51.4198C39.155 50.9903 39.3374 50.6429 39.7629 50.3771ZM42.2557 43.841C42.1734 44.3787 42.1194 44.4052 41.5453 44.5331C40.922 44.8492 39.9597 45.1876 40.9798 44.0584C41.0843 43.9273 41.1898 43.7958 41.2946 43.6647C41.6118 43.4648 41.9321 43.5233 42.2557 43.841ZM44.8437 48.8115C44.1739 48.7983 44.1329 48.736 43.8819 48.043C43.3928 47.3212 42.821 46.1816 44.3675 47.2621C44.5449 47.3703 44.7227 47.4798 44.9004 47.5886C45.197 47.9493 45.1777 48.3572 44.8437 48.8115ZM45.9858 51.1469C45.7899 50.174 45.9873 50.0332 46.8904 49.448C47.7587 48.5109 47.9781 47.4404 47.7292 49.1642C47.632 49.4555 47.5345 49.7471 47.4371 50.0387C47.0192 50.5828 46.738 51.4838 45.9858 51.1469ZM62.2522 55.6531C61.9499 57.8435 58.8966 51.8441 59.2728 51.6039C58.9893 50.6632 59.3542 50.4178 59.8809 50.6222C60.3876 52.3605 60.4483 53.9147 62.2522 55.6531ZM57.333 63.4179C56.3068 63.8557 52.2681 59.7268 51.9821 59.515C51.4221 58.5488 51.4604 58.1089 52.0973 58.1948C53.7411 59.9645 55.6896 62.172 57.333 63.4179ZM58.4394 67.6466C59.0449 68.0167 59.2677 67.9362 59.1085 67.4057C58.2023 65.7914 57.6747 65.709 56.8619 64.8016C56.3365 64.705 56.1931 64.6569 56.4317 64.9459C57.157 66.081 57.9175 66.7227 58.4394 67.6466ZM62.215 66.1036C62.2076 67.2126 61.9208 68.3218 61.0202 69.4311C60.7496 69.383 60.4787 69.3348 60.2077 69.2867C59.7937 69.4472 59.6981 69.608 59.921 69.7689C60.0802 69.9135 60.2397 70.0582 60.3989 70.2032C59.9671 71.6176 59.6636 73.0324 60.2555 74.4471C60.861 74.7365 61.0841 74.5756 60.9246 73.9647C59.9219 72.382 60.715 71.3573 61.4025 70.2994C61.6793 71.1675 60.8497 72.6949 61.4985 72.9038C62.1291 71.8014 63.3963 69.8596 61.7849 69.8173C62.6423 68.7077 63.0572 66.8722 63.0756 66.2964C63.1141 65.0806 62.5341 65.0909 62.215 66.1036ZM62.2677 60.0488C62.9901 60.5435 62.8586 60.6959 62.2244 61.3569C61.8146 62.2108 62.154 62.9099 61.4975 61.8207C61.4445 61.6169 61.3916 61.4131 61.338 61.2094C61.4865 60.7447 61.3008 60.1211 62.2677 60.0488ZM70.8346 66.8751C70.3299 67.4018 70.3573 67.6366 70.5088 68.6703C70.4933 69.92 70.1313 70.8051 70.761 69.4534C70.8424 69.1857 70.9244 68.9179 71.0061 68.6509C71.0532 67.9857 71.3148 67.1728 70.8346 66.8751ZM75.8129 65.6112C80.586 62.6008 77.6503 59.6422 78.9759 56.1006C76.8572 58.7296 79.5611 62.5317 75.1173 65.1006C73.852 65.6538 74.4214 66.143 75.8129 65.6112ZM64.0945 81.353C63.9075 82.0611 63.6937 82.1579 62.7379 82.5589C61.6838 83.2161 61.1184 83.985 61.9428 82.7443C62.1278 82.5357 62.3129 82.3274 62.4982 82.1187C63.0385 81.7353 63.5943 81.0906 64.0945 81.353Z" fill="#FFF200"/>
<path fill-rule="evenodd" clip-rule="evenodd" d="M24.6085 21.5655L59.5743 16.3228L94.1776 21.5655V24.5613L59.5743 18.9443L24.6085 24.5613V21.5655Z" fill="white"/>
<path fill-rule="evenodd" clip-rule="evenodd" d="M94.1705 24.4013C94.1705 25.5906 94.1705 26.8174 94.1705 28.1982C66.4943 19.2431 51.0811 18.7258 24.6012 28.1982C24.6012 26.8174 24.6012 25.5906 24.6012 24.4013L59.5678 19.0445L94.1705 24.4013Z" fill="#ED1C24"/>
<path fill-rule="evenodd" clip-rule="evenodd" d="M24.6012 18.2714C36.2261 16.6183 47.851 14.9656 59.4761 13.3125C71.0408 14.9656 82.6055 16.6183 94.1705 18.2714C94.1705 19.4514 94.1705 20.5212 94.1705 21.5507L59.5678 16.4346L24.6012 21.551C24.6012 20.5212 24.6012 19.4514 24.6012 18.2714Z" fill="#00A650"/>
</svg>
