<svg width="25" height="18" viewBox="0 0 25 18" fill="none" xmlns="http://www.w3.org/2000/svg">
<path d="M22.5 0H2.5C1.11919 0 0 0.984887 0 2.2V15.4C0 16.6151 1.11919 17.6 2.5 17.6H22.5C23.8808 17.6 25 16.6151 25 15.4V2.2C25 0.984887 23.8808 0 22.5 0ZM1.25 4.19139L8.73169 8.8L1.25 13.409V4.19139ZM23.75 15.4C23.75 16.0065 23.1892 16.5 22.5 16.5H2.5C1.81084 16.5 1.25 16.0065 1.25 15.4V14.751L9.82168 9.471L12.1413 10.8999C12.3583 11.033 12.6417 11.033 12.8592 10.8999L15.1788 9.471L23.75 14.751V15.4ZM23.75 13.4086L16.2683 8.8L23.75 4.191V13.4086ZM23.75 2.849L12.5 9.77861L1.25 2.849V2.2C1.25 1.59354 1.81084 1.1 2.5 1.1H22.5C23.1892 1.1 23.75 1.59354 23.75 2.2V2.849Z" fill="#EF1D26"/>
</svg>
