<?xml version="1.0" standalone="no"?>
<!DOCTYPE svg PUBLIC "-//W3C//DTD SVG 20010904//EN"
 "http://www.w3.org/TR/2001/REC-SVG-20010904/DTD/svg10.dtd">
<svg version="1.0" xmlns="http://www.w3.org/2000/svg"
 width="626.000000pt" height="455.000000pt" viewBox="0 0 626.000000 455.000000"
 preserveAspectRatio="xMidYMid meet">
<metadata>
Created by potrace 1.16, written by Peter Selinger 2001-2019
</metadata>
<g transform="translate(0.000000,455.000000) scale(0.100000,-0.100000)"
fill="#000000" stroke="none">
<path d="M2945 3964 c-273 -111 -665 -237 -1066 -343 -234 -62 -298 -83 -311
-104 -4 -7 -8 -144 -8 -304 l0 -293 28 0 c17 0 51 18 90 48 l63 47 2 165 c2
91 7 173 11 182 10 23 79 47 256 92 305 78 739 217 982 315 69 28 129 51 132
51 4 0 66 -23 139 -51 290 -113 754 -258 1049 -329 142 -34 173 -45 185 -69 4
-9 10 -155 13 -324 l5 -308 88 -29 c48 -17 90 -30 92 -30 3 0 5 182 5 405 0
422 -2 442 -44 464 -11 6 -127 38 -256 70 -391 98 -815 233 -1138 362 -67 27
-130 49 -140 48 -9 0 -89 -29 -177 -65z"/>
<path d="M3045 3569 c-184 -79 -544 -197 -835 -273 -250 -66 -256 -69 -263
-113 -4 -20 -5 -38 -3 -40 2 -2 32 10 68 26 171 77 257 95 518 112 319 20 915
-20 1023 -70 44 -20 265 -186 402 -301 l80 -68 115 -21 c63 -12 125 -25 138
-28 l22 -5 0 210 0 211 -25 19 c-14 11 -45 23 -68 27 -150 25 -696 192 -950
291 -77 30 -142 54 -145 54 -4 0 -38 -14 -77 -31z"/>
<path d="M2403 3170 c-200 -20 -364 -85 -588 -234 -49 -33 -106 -72 -125 -87
-27 -21 -51 -28 -105 -33 -38 -4 -101 -14 -138 -22 -73 -17 -91 -37 -85 -94 1
-14 -13 -50 -33 -85 -67 -115 -70 -128 -58 -282 9 -109 16 -148 35 -184 12
-25 27 -74 34 -110 15 -86 62 -182 107 -216 36 -27 39 -28 175 -28 l139 0 41
43 40 44 47 -12 c25 -6 160 -43 299 -82 l253 -72 41 -85 c49 -102 126 -184
215 -227 53 -26 68 -29 163 -29 97 0 110 2 172 32 37 17 89 52 116 77 l48 45
332 15 c183 9 437 21 565 28 l232 11 70 -27 c60 -25 79 -28 146 -24 92 5 147
33 211 109 24 27 62 58 85 68 35 16 63 45 63 66 0 3 -12 -4 -27 -15 -33 -24
-169 -54 -308 -69 -234 -26 -411 -33 -936 -38 l-557 -5 -6 93 c-15 204 -44
350 -92 470 -14 34 -23 63 -21 65 2 3 51 -7 108 -20 121 -28 169 -37 169 -31
0 2 -26 11 -57 20 -95 28 -175 69 -269 137 -180 132 -263 148 -375 72 -28 -18
-54 -32 -58 -29 -4 2 -142 45 -307 95 -164 50 -305 93 -312 95 -17 6 -3 33 45
86 43 47 26 46 384 19 144 -11 264 -19 266 -16 10 9 -141 289 -172 321 -36 35
-97 54 -178 56 -36 0 -39 2 -19 9 44 18 139 29 178 20 56 -12 112 -78 223
-263 89 -149 96 -157 130 -162 381 -62 682 -155 971 -300 61 -30 110 -53 110
-51 0 6 -132 91 -205 133 -149 83 -361 166 -547 214 -46 11 -85 23 -88 26 -3
3 193 3 435 0 493 -6 567 -14 774 -82 116 -39 305 -126 373 -172 65 -45 75
-49 53 -24 -33 38 -138 109 -247 167 -87 47 -97 54 -63 49 123 -21 320 -102
383 -160 50 -44 55 -35 10 19 l-31 38 33 -7 c34 -7 120 -41 120 -47 0 -2 -20
-53 -45 -112 -25 -60 -45 -110 -45 -112 0 -5 121 26 161 42 31 13 44 14 47 6
2 -6 14 -32 27 -57 33 -67 26 -79 -67 -115 -44 -16 -85 -30 -91 -30 -5 0 -8
-2 -5 -5 3 -3 27 -1 52 6 26 6 49 9 52 6 12 -12 -43 -95 -107 -160 -60 -62
-66 -72 -52 -82 19 -14 111 3 163 30 30 16 35 26 85 212 26 94 27 104 12 120
-8 10 -35 61 -60 113 -33 72 -55 105 -88 134 -96 82 -303 155 -628 220 l-209
42 -128 105 c-172 140 -327 257 -360 269 -14 6 -103 20 -198 31 -192 24 -736
35 -903 19z m942 -45 c107 -15 216 -47 203 -60 -2 -3 -42 0 -89 7 -119 17
-670 16 -837 -1 l-133 -14 -29 28 c-17 16 -27 31 -24 34 32 33 689 37 909 6z
m75 -66 c74 -6 143 -15 155 -21 24 -13 85 -62 219 -177 84 -71 96 -86 80 -92
-10 -4 -101 -8 -201 -8 l-182 -1 -207 104 c-114 58 -255 124 -313 147 -58 23
-110 46 -115 51 -14 12 405 10 564 -3z m-1597 -299 l97 -13 -42 -46 c-24 -26
-47 -55 -53 -64 -9 -15 -16 -15 -93 4 -116 28 -123 19 -16 -20 l90 -32 -4
-122 c-2 -67 1 -153 6 -192 5 -38 8 -72 6 -74 -6 -7 -86 22 -99 36 -7 7 -21
34 -30 60 -56 158 -123 243 -191 243 -38 0 -83 -19 -104 -46 -11 -12 -6 -11
20 5 58 35 87 28 145 -32 56 -58 95 -141 120 -257 7 -36 14 -53 14 -39 l1 26
62 -22 c54 -20 65 -28 79 -61 24 -53 23 -64 -4 -64 -34 0 -131 30 -139 44 -5
6 -8 7 -9 1 0 -5 -9 33 -19 85 -23 123 -52 197 -95 248 -44 50 -81 60 -132 35
-43 -21 -78 -68 -95 -127 -19 -69 -26 -62 -33 38 -7 92 -6 97 24 161 17 37 40
79 51 95 11 15 20 43 20 62 0 18 4 39 8 45 4 7 68 23 142 36 111 19 139 21
155 11 11 -7 64 -18 118 -24z m92 -210 c62 -22 518 -200 521 -203 1 -1 -6 -38
-17 -82 -24 -100 -23 -113 1 -53 39 95 115 185 176 208 40 16 115 11 159 -9
73 -33 155 -133 190 -231 8 -22 12 -40 10 -40 -2 0 -18 26 -35 58 -68 128
-147 192 -237 192 -95 0 -164 -53 -217 -163 -29 -61 -56 -164 -56 -214 0 -17
-5 -35 -11 -39 -6 -3 -9 -19 -6 -34 l6 -27 -101 33 c-128 43 -151 43 -36 1 48
-18 90 -36 95 -41 5 -5 -1 -6 -12 -2 -39 14 -394 115 -429 121 -19 4 -39 12
-44 19 -13 15 -35 86 -29 92 2 3 80 -25 173 -62 93 -37 213 -84 267 -105 l98
-38 -3 26 c-3 23 -20 32 -213 105 -115 43 -237 89 -270 102 -48 18 -61 28 -68
52 -12 37 -14 335 -3 352 4 8 15 10 25 7 9 -4 39 -15 66 -25z m-392 -214 c38
-35 56 -77 69 -160 19 -125 -13 -253 -74 -299 -26 -19 -27 -19 -60 -1 -22 13
-43 39 -63 79 -28 56 -30 68 -30 170 0 121 17 171 71 214 34 27 55 26 87 -3z
m1251 -90 c51 -30 101 -98 128 -174 29 -81 36 -245 13 -331 -65 -249 -249
-318 -369 -138 -71 109 -97 245 -72 386 16 90 60 193 98 228 62 58 135 68 202
29z m-731 -318 c158 -45 295 -87 304 -94 10 -6 -57 8 -147 32 -91 24 -242 62
-335 84 -179 43 -202 51 -191 68 7 12 -9 16 369 -90z"/>
<path d="M1447 2272 c-62 -68 -45 -296 24 -333 20 -10 25 -9 45 14 49 57 54
204 10 290 -24 48 -53 58 -79 29z"/>
<path d="M2640 2162 c-25 -14 -44 -37 -69 -86 -30 -58 -35 -79 -39 -156 -6
-124 21 -214 83 -276 38 -37 51 -44 84 -44 88 0 150 101 159 256 7 141 -35
258 -111 304 -40 25 -63 25 -107 2z m174 -193 c20 -24 26 -41 26 -81 0 -41 -5
-54 -29 -79 -35 -34 -50 -36 -84 -8 -37 28 -53 86 -37 133 22 69 81 86 124 35z"/>
<path d="M3085 2434 c89 -91 106 -104 155 -118 51 -14 451 -68 458 -61 6 5
-126 84 -225 133 -126 64 -193 86 -358 121 l-131 28 101 -103z"/>
<path d="M4005 2249 c-161 -7 -201 -15 -223 -42 -10 -12 -4 -24 38 -70 96
-105 173 -141 341 -158 131 -13 279 -1 384 32 58 17 79 30 122 74 73 75 84
144 28 165 -30 11 -444 11 -690 -1z"/>
<path d="M3170 2124 c0 -19 59 -182 87 -241 29 -62 40 -66 202 -83 160 -16
269 -13 316 9 46 21 46 22 -80 47 -115 22 -211 71 -281 140 -30 30 -54 58 -54
62 0 4 60 5 132 4 73 -2 130 -1 127 2 -3 4 -55 11 -116 17 -60 5 -159 20 -221
32 -82 17 -112 20 -112 11z"/>
<path d="M4448 1875 c-3 -3 -111 -9 -240 -14 -257 -10 -261 -11 -368 -80 l-65
-43 -250 5 c-268 5 -311 12 -359 55 l-28 27 15 -31 c28 -56 72 -65 332 -74
127 -4 234 -5 239 -2 5 3 147 9 315 13 406 11 687 38 805 77 76 26 68 41 -11
21 -86 -23 -137 -24 -154 -3 -28 34 -87 54 -157 54 -38 0 -71 -2 -74 -5z"/>
<path d="M1850 1739 c-19 -17 -54 -35 -77 -42 -24 -6 -43 -14 -43 -18 0 -11
111 -184 165 -254 235 -311 599 -596 1074 -841 145 -75 162 -75 294 -12 215
104 484 273 668 419 121 97 299 271 388 381 l62 77 -38 17 c-28 12 -56 14
-106 10 -67 -5 -67 -5 -119 -63 -128 -144 -308 -296 -490 -416 -142 -93 -387
-230 -454 -253 -49 -17 -54 -17 -96 -1 -25 10 -112 55 -194 101 -434 241 -741
510 -928 811 -31 50 -59 95 -63 102 -6 9 -18 3 -43 -18z"/>
<path d="M2192 1642 c57 -81 279 -296 392 -380 126 -93 322 -212 448 -272 102
-49 104 -49 258 33 216 114 419 253 550 376 l65 61 -55 -5 c-30 -2 -178 -10
-329 -16 l-274 -11 -61 -47 c-185 -141 -406 -156 -587 -40 -69 44 -160 145
-199 222 -30 57 -40 69 -70 77 -19 5 -65 18 -103 29 l-67 20 32 -47z"/>
</g>
</svg>
