<svg width="165" height="19" viewBox="0 0 165 19" fill="none" xmlns="http://www.w3.org/2000/svg">
<path d="M-1.93715e-06 18.1221V0.62207H3.61666V14.9721H8.86667V18.1221H-1.93715e-06ZM20.6047 18.4721C19.3213 18.4721 18.1223 18.2387 17.0074 17.7721C15.8926 17.2924 14.9074 16.6378 14.0519 15.8082C13.2093 14.9786 12.5482 14.0128 12.0686 12.911C11.5889 11.8091 11.3491 10.6295 11.3491 9.37207C11.3491 8.11466 11.5889 6.93503 12.0686 5.83318C12.5482 4.73133 13.2093 3.76559 14.0519 2.93596C14.9074 2.10633 15.8926 1.45818 17.0074 0.991515C18.1223 0.511885 19.3213 0.272071 20.6047 0.272071C21.888 0.272071 23.0871 0.511885 24.2019 0.991515C25.3167 1.45818 26.2954 2.10633 27.138 2.93596C27.9936 3.76559 28.6611 4.73133 29.1408 5.83318C29.6204 6.93503 29.8602 8.11466 29.8602 9.37207C29.8602 10.6295 29.6204 11.8091 29.1408 12.911C28.6611 14.0128 27.9936 14.9786 27.138 15.8082C26.2954 16.6378 25.3167 17.2924 24.2019 17.7721C23.0871 18.2387 21.888 18.4721 20.6047 18.4721ZM20.6047 15.0887C21.6547 15.0887 22.601 14.836 23.4436 14.3304C24.2861 13.8119 24.9537 13.1184 25.4463 12.2498C25.9519 11.3813 26.2047 10.4221 26.2047 9.37207C26.2047 8.30911 25.9519 7.34985 25.4463 6.49429C24.9537 5.62577 24.2861 4.93874 23.4436 4.43318C22.601 3.91466 21.6547 3.6554 20.6047 3.6554C19.5547 3.6554 18.6019 3.91466 17.7463 4.43318C16.9037 4.93874 16.2361 5.62577 15.7436 6.49429C15.251 7.34985 15.0047 8.30911 15.0047 9.37207C15.0047 10.4221 15.251 11.3813 15.7436 12.2498C16.2361 13.1184 16.9037 13.8119 17.7463 14.3304C18.6019 14.836 19.5547 15.0887 20.6047 15.0887ZM32.223 3.77207V0.62207H44.3952V3.77207H40.1174V18.1221H36.5007V3.77207H32.223ZM80.9612 18.1221L88.6806 -0.000151873H88.7195L96.439 18.1221H92.9195L91.6167 15.011H85.6667L84.364 18.1221H80.9612ZM86.8334 12.211H90.4501L89.6917 10.4221C89.4843 9.94244 89.2899 9.48226 89.1084 9.04151C88.9399 8.58781 88.7779 8.06281 88.6223 7.46651C88.4797 8.04985 88.3242 8.56837 88.1556 9.02207C87.9871 9.47577 87.7992 9.94244 87.5917 10.4221L86.8334 12.211ZM106.113 18.5304C104.881 18.5304 103.786 18.2776 102.827 17.7721C101.867 17.2665 101.109 16.5471 100.552 15.6137C100.007 14.6674 99.7351 13.5397 99.7351 12.2304V0.62207H103.352V12.0554C103.352 13.0017 103.611 13.7536 104.129 14.311C104.661 14.8684 105.342 15.1471 106.171 15.1471C106.988 15.1471 107.662 14.8813 108.193 14.3498C108.725 13.8054 108.991 13.0795 108.991 12.1721V0.62207H112.491V12.1721C112.491 13.4943 112.218 14.635 111.674 15.5943C111.129 16.5406 110.378 17.2665 109.418 17.7721C108.472 18.2776 107.37 18.5304 106.113 18.5304ZM116.95 3.77207V0.62207H129.123V3.77207H124.845V18.1221H121.228V3.77207H116.95ZM140.738 18.4721C139.454 18.4721 138.255 18.2387 137.141 17.7721C136.026 17.2924 135.041 16.6378 134.185 15.8082C133.342 14.9786 132.681 14.0128 132.202 12.911C131.722 11.8091 131.482 10.6295 131.482 9.37207C131.482 8.11466 131.722 6.93503 132.202 5.83318C132.681 4.73133 133.342 3.76559 134.185 2.93596C135.041 2.10633 136.026 1.45818 137.141 0.991515C138.255 0.511885 139.454 0.272071 140.738 0.272071C142.021 0.272071 143.22 0.511885 144.335 0.991515C145.45 1.45818 146.429 2.10633 147.271 2.93596C148.127 3.76559 148.794 4.73133 149.274 5.83318C149.754 6.93503 149.993 8.11466 149.993 9.37207C149.993 10.6295 149.754 11.8091 149.274 12.911C148.794 14.0128 148.127 14.9786 147.271 15.8082C146.429 16.6378 145.45 17.2924 144.335 17.7721C143.22 18.2387 142.021 18.4721 140.738 18.4721ZM140.738 15.0887C141.788 15.0887 142.734 14.836 143.577 14.3304C144.419 13.8119 145.087 13.1184 145.579 12.2498C146.085 11.3813 146.338 10.4221 146.338 9.37207C146.338 8.30911 146.085 7.34985 145.579 6.49429C145.087 5.62577 144.419 4.93874 143.577 4.43318C142.734 3.91466 141.788 3.6554 140.738 3.6554C139.688 3.6554 138.735 3.91466 137.879 4.43318C137.037 4.93874 136.369 5.62577 135.877 6.49429C135.384 7.34985 135.138 8.30911 135.138 9.37207C135.138 10.4221 135.384 11.3813 135.877 12.2498C136.369 13.1184 137.037 13.8119 137.879 14.3304C138.735 14.836 139.688 15.0887 140.738 15.0887ZM159.265 18.511C158.202 18.511 157.191 18.3165 156.232 17.9276C155.285 17.5258 154.527 17.0461 153.957 16.4887L154.909 12.5998C155.363 13.3906 156.005 14.0517 156.834 14.5832C157.664 15.1017 158.513 15.361 159.382 15.361C160.095 15.361 160.652 15.1665 161.054 14.7776C161.469 14.3887 161.676 13.9156 161.676 13.3582C161.676 12.9045 161.566 12.5286 161.346 12.2304C161.138 11.9323 160.885 11.686 160.587 11.4915C160.302 11.2971 160.049 11.148 159.829 11.0443L157.768 10.0137C157.171 9.71559 156.601 9.36559 156.057 8.96374C155.512 8.54892 155.065 8.03688 154.715 7.42763C154.378 6.81837 154.209 6.06651 154.209 5.17207C154.209 4.18688 154.43 3.32485 154.871 2.58596C155.324 1.84707 155.959 1.27022 156.776 0.855403C157.593 0.440589 158.552 0.233181 159.654 0.233181C160.691 0.233181 161.611 0.4017 162.415 0.738737C163.232 1.06281 163.893 1.41281 164.398 1.78874L163.504 5.5804C162.985 4.90633 162.363 4.36837 161.637 3.96651C160.924 3.5517 160.211 3.34429 159.498 3.34429C158.863 3.34429 158.371 3.50633 158.021 3.8304C157.683 4.15448 157.515 4.55633 157.515 5.03596C157.515 5.33411 157.58 5.59985 157.709 5.83318C157.852 6.06651 158.053 6.27392 158.312 6.4554C158.571 6.63688 158.876 6.81837 159.226 6.99985L161.307 8.0304C161.657 8.19892 162.039 8.41929 162.454 8.69151C162.869 8.95077 163.271 9.28133 163.659 9.68318C164.048 10.085 164.366 10.5711 164.612 11.1415C164.858 11.6989 164.982 12.3665 164.982 13.1443C164.982 14.1554 164.748 15.0693 164.282 15.886C163.815 16.6897 163.154 17.3313 162.298 17.811C161.456 18.2776 160.445 18.511 159.265 18.511Z" fill="white"/>
<path d="M56.0105 18.4721C54.7271 18.4721 53.528 18.2387 52.4132 17.7721C51.2984 17.2924 50.3132 16.6378 49.4577 15.8082C48.6151 14.9786 47.954 14.0128 47.4743 12.911C46.9947 11.8091 46.7549 10.6295 46.7549 9.37207C46.7549 8.11466 46.9947 6.93503 47.4743 5.83318C47.954 4.73133 48.6151 3.76559 49.4577 2.93596C50.3132 2.10633 51.2984 1.45818 52.4132 0.991515C53.528 0.511885 54.7271 0.272071 56.0105 0.272071C57.2938 0.272071 58.4929 0.511885 59.6077 0.991515C60.7225 1.45818 61.7012 2.10633 62.5438 2.93596C63.3993 3.76559 64.0669 4.73133 64.5466 5.83318C65.0262 6.93503 65.266 8.11466 65.266 9.37207C65.266 10.6295 65.0262 11.8091 64.5466 12.911C64.0669 14.0128 63.3993 14.9786 62.5438 15.8082C61.7012 16.6378 60.7225 17.2924 59.6077 17.7721C58.4929 18.2387 57.2938 18.4721 56.0105 18.4721ZM56.0105 15.0887C57.0605 15.0887 58.0067 14.836 58.8493 14.3304C59.6919 13.8119 60.3595 13.1184 60.8521 12.2498C61.3577 11.3813 61.6105 10.4221 61.6105 9.37207C61.6105 8.30911 61.3577 7.34985 60.8521 6.49429C60.3595 5.62577 59.6919 4.93874 58.8493 4.43318C58.0067 3.91466 57.0605 3.6554 56.0105 3.6554C54.9605 3.6554 54.0077 3.91466 53.1521 4.43318C52.3095 4.93874 51.6419 5.62577 51.1493 6.49429C50.6567 7.34985 50.4105 8.30911 50.4105 9.37207C50.4105 10.4221 50.6567 11.3813 51.1493 12.2498C51.6419 13.1184 52.3095 13.8119 53.1521 14.3304C54.0077 14.836 54.9605 15.0887 56.0105 15.0887ZM70.4287 18.1221V0.62207H79.7621V3.53874H73.8121V6.33874H79.1787V9.2554H73.8121V18.1221H70.4287Z" fill="#EF1D26"/>
</svg>
