<svg width="119" height="119" viewBox="0 0 119 119" fill="none" xmlns="http://www.w3.org/2000/svg">
<path fill-rule="evenodd" clip-rule="evenodd" d="M59.5 106.059C85.2338 106.059 106.059 85.2337 106.059 59.4999C106.059 33.7662 85.2338 12.9412 59.5 12.9412C33.7663 12.9412 12.9413 33.7662 12.9413 59.4999C12.9413 85.2337 33.7663 106.059 59.5 106.059ZM15.7675 59.4999C15.7675 35.2537 35.2538 15.7674 59.5 15.7674C83.7463 15.7674 103.233 35.2537 103.233 59.4999C103.233 83.5974 83.7463 103.232 59.5 103.232C35.4025 103.232 15.7675 83.7462 15.7675 59.4999Z" fill="url(#paint0_linear_1_247)"/>
<path fill-rule="evenodd" clip-rule="evenodd" d="M15.7675 59.4998C15.7675 35.2536 35.2538 15.7673 59.5 15.7673C83.7463 15.7673 103.233 35.2536 103.233 59.4998C103.233 83.5973 83.7463 103.232 59.5 103.232C35.4025 103.232 15.7675 83.7461 15.7675 59.4998ZM18.5938 59.4998C18.5938 82.1098 36.89 100.406 59.5 100.406C82.11 100.406 100.406 82.1098 100.406 59.4998C100.406 36.8898 82.11 18.5936 59.5 18.5936C36.89 18.5936 18.5938 36.8898 18.5938 59.4998Z" fill="url(#paint1_linear_1_247)"/>
<path opacity="0.4" fill-rule="evenodd" clip-rule="evenodd" d="M107.1 59.4999C107.1 33.3199 85.68 11.8999 59.5 11.8999C33.32 11.8999 11.9 33.3199 11.9 59.4999C11.9 85.6799 33.32 107.1 59.5 107.1C85.68 107.1 107.1 85.6799 107.1 59.4999ZM106.059 59.4999C106.059 85.2337 85.2338 106.059 59.5 106.059C33.7663 106.059 12.9413 85.2337 12.9413 59.4999C12.9413 33.7662 33.7663 12.9412 59.5 12.9412C85.2338 12.9412 106.059 33.7662 106.059 59.4999Z" fill="url(#paint2_linear_1_247)"/>
<path fill-rule="evenodd" clip-rule="evenodd" d="M59.5 15.1724C34.9563 15.1724 15.1725 35.2536 15.1725 59.6486C15.1725 84.0436 34.9563 103.827 59.5 103.827C84.0438 103.827 103.828 84.0436 103.828 59.6486C103.828 35.1049 84.0438 15.1724 59.5 15.1724ZM16.2138 59.6486C16.2138 47.7486 21.1225 36.8899 29.0063 29.0061C36.7413 21.1224 47.6 16.2136 59.5 16.2136C71.4 16.2136 82.2588 21.1224 89.9938 29.0061C97.7288 36.8899 102.638 47.7486 102.638 59.6486C102.638 71.5486 97.8775 82.4074 89.9938 90.1424C82.2588 98.0261 71.4 102.786 59.5 102.786C47.6 102.786 36.7413 97.8774 28.8575 90.1424C21.1225 82.4074 16.2138 71.5486 16.2138 59.6486Z" fill="white"/>
<path opacity="0.4" fill-rule="evenodd" clip-rule="evenodd" d="M30.4938 88.5061C38.2288 96.2411 48.4925 100.555 59.5 100.555C70.5075 100.555 80.7713 96.2411 88.5063 88.5061C96.2413 80.7711 100.555 70.5073 100.555 59.4998C100.555 48.4923 96.2413 38.2286 88.5063 30.4936C80.7713 22.7586 70.5075 18.4448 59.5 18.4448C48.4925 18.4448 38.2288 22.7586 30.4938 30.4936C22.7588 38.2286 18.445 48.4923 18.445 59.4998C18.445 70.5073 22.7588 80.7711 30.4938 88.5061ZM87.6138 87.7623C80.1763 95.1998 70.0613 99.3648 59.5 99.3648C48.9388 99.3648 38.8238 95.1998 31.2375 87.6136C23.8 80.1761 19.635 70.0611 19.635 59.4998C19.635 48.9386 23.8 38.8236 31.3863 31.5348C38.8238 24.0973 48.9388 19.9323 59.5 19.9323C70.0613 19.9323 80.0275 23.9486 87.6138 31.5348C95.0513 38.9723 99.2163 49.0873 99.2163 59.6486C99.2163 70.2098 95.2 80.1761 87.6138 87.7623Z" fill="url(#paint3_linear_1_247)"/>
<path d="M95.6463 78.8374C94.9025 78.2424 66.1938 55.4836 66.1938 55.4836L59.5 17.2549C59.0538 17.4036 58.4588 17.8499 58.1613 18.4449L53.4013 55.6324L23.8 78.3911C23.8 78.3911 23.205 79.1349 22.9075 79.5811C22.7588 79.8786 22.7588 80.3249 22.7588 80.7711L59.3513 65.7474L95.9438 80.7711C96.2413 80.0274 95.9438 79.2836 95.6463 78.8374Z" fill="white"/>
<path d="M59.7975 60.6899L59.5 67.5324L93.1175 81.0686C94.3075 81.6636 95.2 81.3661 96.0925 80.7711L60.2437 60.5411C60.095 60.3924 59.7975 60.5411 59.7975 60.6899Z" fill="#565F64"/>
<path d="M59.7975 60.6899C59.7975 60.6899 61.7313 64.1111 63.9625 66.4911C67.0863 69.9124 71.2513 72.2924 71.2513 72.2924L93.1175 81.0686C94.3075 81.6636 95.2 81.3661 96.0925 80.7711L60.2438 60.5411C60.095 60.3924 59.7975 60.5411 59.7975 60.6899Z" fill="url(#paint4_linear_1_247)"/>
<path d="M95.9437 79.4325C95.9437 79.2837 95.795 79.135 95.6462 78.8375L65.0037 56.3762L60.8387 59.0537C60.8387 59.0537 61.1362 59.2025 61.285 59.0537C61.7312 58.905 62.6237 58.7562 63.5162 59.0537C64.26 59.3512 95.9437 79.5812 95.9437 79.4325C95.9437 79.5812 95.9437 79.5812 95.9437 79.4325Z" fill="#A4AAAE" fill-opacity="0.6"/>
<path d="M94.9025 78.0936L66.3425 55.4836L65.0038 56.3761L95.6463 78.9861C95.4975 78.6886 95.2 78.3911 94.9025 78.0936Z" fill="#333E46"/>
<path d="M60.2438 58.4586L60.095 58.6073C60.095 58.6073 60.095 58.9048 60.3925 58.7561C60.5413 58.6073 64.855 56.3761 66.3425 55.4836L61.1363 19.7836C60.9875 18.4448 60.3925 17.8498 59.3513 17.4036L59.9463 58.7561L60.2438 58.4586Z" fill="#565F64"/>
<path fill-rule="evenodd" clip-rule="evenodd" d="M57.715 21.7175V19.7837C57.8638 19.04 58.0125 18.445 58.4588 18.1475L58.31 20.9737L56.9713 57.2687L55.0375 55.7812C54.5913 55.4837 54.4425 55.0375 54.4425 54.5912L57.715 21.7175ZM23.9488 78.2425L54.145 56.3762L55.93 57.8637C56.3763 58.31 56.2275 58.6075 55.6325 58.905L23.9488 78.8375L22.9075 79.4325C23.0563 78.8375 23.9488 78.2425 23.9488 78.2425Z" fill="#A4AAAE" fill-opacity="0.6"/>
<path d="M59.0538 60.6899C59.0538 60.5411 58.905 60.3924 58.7563 60.5411L22.7588 80.9199C23.6513 81.5149 24.5438 81.6636 25.7338 81.2174L59.3513 67.6811L59.0538 60.6899Z" fill="#565F64"/>
<path d="M60.095 58.6073L60.2438 58.4586L60.095 58.6073C60.095 58.6073 60.095 58.7561 60.2438 58.7561H60.3925C60.5413 58.6073 64.855 56.3761 66.3425 55.4836L65.7475 51.1698L61.1363 19.7836C61.1363 19.1886 60.9875 18.7423 60.69 18.4448C60.69 18.4448 62.9213 48.4923 62.9213 51.7648C62.9213 56.0786 60.095 58.6073 60.095 58.6073H60.095Z" fill="url(#paint5_linear_1_247)"/>
<path d="M59.0538 60.6899C59.0538 60.5411 58.905 60.3924 58.7563 60.5411L22.7588 80.9199C23.6513 81.5149 24.5438 81.6636 25.7338 81.2174L59.3513 67.6811L59.0538 60.6899Z" fill="url(#paint6_linear_1_247)" fill-opacity="0.8"/>
<path opacity="0.8" d="M25.7338 81.0685L59.3513 67.5323L59.0538 60.9873C58.4588 62.7723 57.4175 64.7061 54.5913 66.1936C52.5088 67.3836 32.5763 77.201 25.4363 80.6223C24.99 80.9198 24.395 81.0685 24.0975 81.2173C24.6925 81.5148 25.1388 81.366 25.7338 81.0685Z" fill="url(#paint7_linear_1_247)"/>
<path d="M60.2438 58.4586L60.095 58.6073C60.095 58.6073 60.095 58.9048 60.3925 58.7561C60.5413 58.6073 64.855 56.3761 66.3425 55.4836L61.1363 19.7836C60.9875 18.4448 60.3925 17.8498 59.3513 17.4036L59.9463 58.7561L60.2438 58.4586Z" fill="url(#paint8_linear_1_247)"/>
<path d="M60.2438 58.4586L60.095 58.6073C60.095 58.6073 60.095 58.9048 60.3925 58.7561C60.5413 58.6073 64.855 56.3761 66.3425 55.4836L61.1363 19.7836C60.9875 18.4448 60.3925 17.8498 59.3513 17.4036L59.9463 58.7561L60.2438 58.4586Z" fill="url(#paint9_linear_1_247)"/>
<path d="M19.4863 77.9449C18.445 75.5649 12.495 63.9624 19.04 41.6499H16.5113C15.1725 46.1124 14.1313 48.7899 13.5363 52.8062C13.5363 52.8062 13.2388 54.2937 13.09 55.9299C12.9413 57.5662 12.9413 58.4587 12.9413 59.4999C12.9413 68.4249 15.1725 73.6312 15.1725 73.6312C17.5525 81.0687 21.7175 87.7624 27.37 92.8199C32.2788 97.1337 39.865 100.406 46.1125 101.596C45.0713 101.447 27.2213 93.8611 19.4863 77.9449Z" fill="url(#paint10_linear_1_247)"/>
<path d="M60.095 60.3924H58.7563C58.905 60.3924 59.0538 60.3924 59.0538 60.5412L59.3513 67.3837H59.5L59.7975 60.5412C59.7975 60.3924 59.9463 60.2437 60.095 60.3924Z" fill="url(#paint11_linear_1_247)"/>
<path d="M74.375 15.321C89.9937 21.271 104.72 37.6335 104.72 58.3098C104.72 83.2998 84.7875 103.679 59.5 103.679V106.059C84.7875 106.059 106.059 85.2335 106.059 59.4998C106.059 38.9723 92.9688 21.7173 74.375 15.321Z" fill="url(#paint12_linear_1_247)"/>
<path d="M99.365 41.9475C88.9525 17.9987 65.45 16.66 64.1113 16.5112H63.9625C81.9613 19.7837 93.415 31.535 97.4313 43.8812V44.03C99.2163 48.79 100.109 53.8475 100.258 59.3512C100.406 64.5575 99.2163 70.3587 96.985 75.7137C96.8363 76.4575 96.6875 77.35 96.5388 77.35H98.9188C106.059 63.9625 102.935 50.4262 99.365 41.9475Z" fill="url(#paint13_linear_1_247)"/>
<path fill-rule="evenodd" clip-rule="evenodd" d="M59.5 15.1724C34.9563 15.1724 15.1725 35.2536 15.1725 59.6486C15.1725 84.0436 34.9563 103.827 59.5 103.827C84.0438 103.827 103.828 84.0436 103.828 59.6486C103.828 35.1049 84.0438 15.1724 59.5 15.1724ZM16.2138 59.6486C16.2138 47.7486 21.1225 36.8899 29.0063 29.0061C36.7413 21.1224 47.6 16.2136 59.5 16.2136C71.4 16.2136 82.2588 21.1224 89.9938 29.0061C97.7288 36.8899 102.638 47.7486 102.638 59.6486C102.638 71.5486 97.8775 82.4074 89.9938 90.1424C82.2588 98.0261 71.4 102.786 59.5 102.786C47.6 102.786 36.7413 97.8774 28.8575 90.1424C21.1225 82.4074 16.2138 71.5486 16.2138 59.6486Z" fill="#FBFBFB"/>
<path d="M23.6512 78.5398L53.9962 56.6736C55.6325 57.5661 58.31 58.7561 58.6075 58.7561C58.905 58.9048 58.905 58.6073 58.905 58.6073L55.1862 55.4836C54.74 55.1861 54.5912 54.7398 54.5912 54.2936L58.1612 18.4448C58.0125 18.5936 58.0125 18.8911 57.8637 19.0398C57.715 19.3373 57.715 19.4861 57.715 19.7836L52.5087 55.6323L23.9487 78.0936C23.8 78.2423 23.6512 78.3911 23.6512 78.5398Z" fill="#333F47"/>
<defs>
<linearGradient id="paint0_linear_1_247" x1="-6.10467" y1="65.3012" x2="65.3013" y2="125.105" gradientUnits="userSpaceOnUse">
<stop stop-color="white"/>
<stop offset="0.1" stop-color="#E7E8E6"/>
<stop offset="0.1" stop-color="#CDD0D0"/>
<stop offset="0.2" stop-color="#B5BBBD"/>
<stop offset="0.2" stop-color="#A5ACAF"/>
<stop offset="0.3" stop-color="#9BA3A7"/>
<stop offset="0.3" stop-color="#98A0A4"/>
<stop offset="0.4" stop-color="#828A8F"/>
<stop offset="0.5" stop-color="#667075"/>
<stop offset="0.6" stop-color="#535C63"/>
<stop offset="0.7" stop-color="#475158"/>
<stop offset="0.8" stop-color="#434D54"/>
<stop offset="1" stop-color="#475157"/>
</linearGradient>
<linearGradient id="paint1_linear_1_247" x1="-2.12562" y1="64.7938" x2="64.8119" y2="121.021" gradientUnits="userSpaceOnUse">
<stop stop-color="#0B1F2A"/>
<stop offset="0.2" stop-color="#333F47"/>
<stop offset="0.5" stop-color="#777F84"/>
<stop offset="0.5" stop-color="#81898D"/>
<stop offset="0.7" stop-color="#B3B8B8"/>
<stop offset="0.8" stop-color="#D2D5D3"/>
<stop offset="0.8" stop-color="#DEE0DD"/>
<stop offset="1" stop-color="#FBFBFB"/>
</linearGradient>
<linearGradient id="paint2_linear_1_247" x1="120.542" y1="87.9305" x2="87.9656" y2="-1.61552" gradientUnits="userSpaceOnUse">
<stop stop-color="#E1E3E1"/>
<stop offset="0.1" stop-color="#C1C5C4"/>
<stop offset="0.3" stop-color="#9BA1A2"/>
<stop offset="0.5" stop-color="#7D8487"/>
<stop offset="0.7" stop-color="#687074" stop-opacity="0.01"/>
<stop offset="0.8" stop-color="#5B6469" stop-opacity="0.01"/>
<stop offset="1" stop-color="#576065" stop-opacity="0.01"/>
</linearGradient>
<linearGradient id="paint3_linear_1_247" x1="3.42423" y1="44.4761" x2="44.4763" y2="115.576" gradientUnits="userSpaceOnUse">
<stop stop-color="#E1E3E1"/>
<stop offset="0.1" stop-color="#C1C5C4"/>
<stop offset="0.3" stop-color="#9BA1A2"/>
<stop offset="0.5" stop-color="#7D8487"/>
<stop offset="0.7" stop-color="#687074" stop-opacity="0.01"/>
<stop offset="0.8" stop-color="#5B6469" stop-opacity="0.01"/>
<stop offset="1" stop-color="#576065" stop-opacity="0.01"/>
</linearGradient>
<linearGradient id="paint4_linear_1_247" x1="74.4618" y1="69.7684" x2="73.5563" y2="74.2606" gradientUnits="userSpaceOnUse">
<stop stop-color="#27343C"/>
<stop offset="1" stop-color="#00111E" stop-opacity="0.01"/>
</linearGradient>
<linearGradient id="paint5_linear_1_247" x1="71.294" y1="41.7668" x2="66.8772" y2="41.5963" gradientUnits="userSpaceOnUse">
<stop offset="0.1" stop-color="#02131F"/>
<stop offset="0.9" stop-color="#02131F" stop-opacity="0.01"/>
</linearGradient>
<linearGradient id="paint6_linear_1_247" x1="57.9179" y1="64.1572" x2="53.4703" y2="68.0165" gradientUnits="userSpaceOnUse">
<stop offset="0.2" stop-color="#02131F"/>
<stop offset="0.9" stop-color="#02131F" stop-opacity="0.01"/>
</linearGradient>
<linearGradient id="paint7_linear_1_247" x1="44.7553" y1="73.9739" x2="44.4463" y2="71.6645" gradientUnits="userSpaceOnUse">
<stop stop-color="#02131F"/>
<stop offset="0.1" stop-color="#02131F"/>
<stop offset="1" stop-color="#02131F" stop-opacity="0.01"/>
</linearGradient>
<linearGradient id="paint8_linear_1_247" x1="64.8077" y1="22.5333" x2="59.7483" y2="22.5503" gradientUnits="userSpaceOnUse">
<stop offset="0.3" stop-color="#02131F"/>
<stop offset="0.3" stop-color="#02131F"/>
<stop offset="0.8" stop-color="#02131F" stop-opacity="0.01"/>
</linearGradient>
<linearGradient id="paint9_linear_1_247" x1="64.978" y1="27.2881" x2="61.5536" y2="27.3008" gradientUnits="userSpaceOnUse">
<stop offset="0.4" stop-color="#27343C"/>
<stop offset="1" stop-color="#3B474E" stop-opacity="0.01"/>
</linearGradient>
<linearGradient id="paint10_linear_1_247" x1="4.73852" y1="98.236" x2="49.0868" y2="106.072" gradientUnits="userSpaceOnUse">
<stop stop-color="#24303A" stop-opacity="0.01"/>
<stop stop-color="#25323B" stop-opacity="0.01"/>
<stop offset="0.1" stop-color="#27343C"/>
</linearGradient>
<linearGradient id="paint11_linear_1_247" x1="60.1786" y1="67.5324" x2="60.1786" y2="60.3924" gradientUnits="userSpaceOnUse">
<stop offset="0.3" stop-color="#A5ABAF"/>
<stop offset="1" stop-color="#A5ABAF" stop-opacity="0.01"/>
</linearGradient>
<linearGradient id="paint12_linear_1_247" x1="59.5" y1="15.321" x2="59.5" y2="106.059" gradientUnits="userSpaceOnUse">
<stop stop-color="#DEE0DD"/>
<stop stop-color="#C5C9C7"/>
<stop stop-color="#9EA4A5"/>
<stop stop-color="#82898C"/>
<stop stop-color="#71797D"/>
<stop stop-color="#6B7378"/>
<stop offset="0.2" stop-color="#333F47"/>
<stop offset="0.5" stop-color="#27343C"/>
<stop offset="0.8" stop-color="#333F47"/>
<stop offset="1" stop-color="#434D54"/>
</linearGradient>
<linearGradient id="paint13_linear_1_247" x1="87.6153" y1="8.37748" x2="59.8881" y2="25.3088" gradientUnits="userSpaceOnUse">
<stop offset="0.7" stop-color="#27343C"/>
<stop offset="0.7" stop-color="#2B373F"/>
<stop offset="0.7" stop-color="#36424A"/>
<stop offset="0.7" stop-color="#49545B"/>
<stop offset="0.8" stop-color="#646D73" stop-opacity="0.01"/>
<stop offset="0.8" stop-color="#868D92" stop-opacity="0.01"/>
<stop offset="0.8" stop-color="#B0B5B8" stop-opacity="0.01"/>
<stop offset="0.8" stop-color="#E1E3E4" stop-opacity="0.01"/>
<stop offset="0.8" stop-color="white" stop-opacity="0.01"/>
</linearGradient>
</defs>
</svg>
