<svg width="131" height="131" viewBox="0 0 131 131" fill="none" xmlns="http://www.w3.org/2000/svg">
<path d="M74.1712 69.6169C74.088 69.6377 73.7553 69.6377 73.6098 69.6377H62.8802V72.1329H73.7969C73.8801 72.1329 74.5247 72.1329 74.6495 72.1121C76.8744 71.9042 77.8933 70.0535 77.8933 68.4316C77.8933 66.7681 76.8328 64.9798 74.8158 64.7927C74.4207 64.7511 74.088 64.7511 73.9425 64.7511H66.8102C66.4983 64.7511 66.1448 64.7303 66.0201 64.6887C65.4586 64.5432 65.2507 64.0441 65.2507 63.6282C65.2507 63.254 65.4586 62.7549 66.0408 62.5886C66.2072 62.547 66.3943 62.5262 66.7894 62.5262H77.0824V60.0725H66.6231C66.1864 60.0725 65.8537 60.0933 65.5834 60.1349C63.7951 60.3844 62.5475 61.8192 62.5475 63.649C62.5475 65.1462 63.4832 66.8929 65.5418 67.184C65.9161 67.2256 66.4359 67.2256 66.6647 67.2256H73.6098C73.7346 67.2256 74.0465 67.2256 74.1088 67.2464C74.899 67.3503 75.1693 67.9326 75.1693 68.4524C75.1693 68.9515 74.8574 69.4921 74.1712 69.6169Z" fill="black"/>
<path d="M53.8355 69.6169C53.7524 69.6377 53.4197 69.6377 53.2949 69.6377H42.5445V72.1329H53.4612C53.5444 72.1329 54.189 72.1329 54.3138 72.1121C56.5387 71.9042 57.5576 70.0535 57.5576 68.4316C57.5576 66.7681 56.4971 64.9798 54.4801 64.7927C54.0851 64.7511 53.7524 64.7511 53.6068 64.7511H46.4745C46.1626 64.7511 45.8091 64.7303 45.6844 64.6887C45.1229 64.5432 44.915 64.0441 44.915 63.6282C44.915 63.254 45.1229 62.7549 45.7052 62.5886C45.8715 62.547 46.0586 62.5262 46.4537 62.5262H56.7467V60.0725H46.2874C45.8507 60.0725 45.518 60.0933 45.2477 60.1349C43.4594 60.3844 42.2118 61.8192 42.2118 63.649C42.2118 65.1462 43.1475 66.8929 45.2061 67.184C45.5804 67.2256 46.1002 67.2256 46.329 67.2256H53.2741C53.3989 67.2256 53.7108 67.2256 53.7731 67.2464C54.5633 67.3503 54.8336 67.9326 54.8336 68.4524C54.8336 68.9515 54.5425 69.4921 53.8355 69.6169Z" fill="black"/>
<path d="M36.9512 59.9895H34.248V72.1955H36.9512V59.9895Z" fill="black"/>
<path d="M28.2795 72.1955V59.9895H25.5763V69.0972L16.5725 59.9895H13.1V72.1955H15.8032V63.0462L24.8693 72.1955H28.2795Z" fill="black"/>
<path d="M115.218 59.9895V69.0972L106.214 59.9895H102.741V72.1955H105.445V63.0462L114.49 72.1955H117.9V59.9895H115.218Z" fill="black"/>
<path d="M88.6644 59.9895L81.0538 72.1955H84.3393L85.6909 70.0121H94.5698L95.9214 72.1955H99.186L91.5755 59.9895H88.6644ZM93.1766 67.704H87.084L90.1407 62.7967L93.1766 67.704Z" fill="black"/>
<path d="M28.1342 53.0656C33.5821 37.1584 48.5953 26.4704 65.5214 26.4704C82.4476 26.4704 97.4815 37.1584 102.909 53.0656L102.95 53.1904H114.865V51.7556L109.916 51.1734C106.86 50.8199 106.215 49.4683 105.383 47.7632L105.175 47.3473C98.0221 32.1263 82.4476 22.27 65.5214 22.27C48.5745 22.27 33.0207 32.1263 25.8676 47.3889L25.6597 47.8048C24.828 49.5099 24.1833 50.8615 21.1267 51.215L16.1777 51.7972V53.232H28.0718L28.1342 53.0656Z" fill="black"/>
<path d="M102.95 79.0159L102.908 79.1407C97.4602 95.0479 82.4471 105.715 65.5209 105.715C48.5947 105.715 33.5608 95.0271 28.1336 79.1199L28.0921 78.9951H16.198V80.4299L21.1469 81.0121C24.2036 81.3656 24.8482 82.7172 25.68 84.4223L25.8879 84.8382C33.041 100.101 48.6155 109.957 65.5417 109.957C82.4678 109.957 98.0424 100.101 105.195 84.859L105.403 84.4431C106.235 82.738 106.88 81.3864 109.936 81.0329L114.885 80.4507V79.0159H102.95Z" fill="black"/>
</svg>
