<svg width="123" height="123" viewBox="0 0 123 123" fill="none" xmlns="http://www.w3.org/2000/svg">
<path d="M65.8283 31.5906H53.6234V56.2222C52.0747 56.9574 50.4704 57.569 48.8254 58.0514C47.9798 58.3033 47.0262 58.5192 46.0426 58.7052V32.7121C46.0426 32.7121 46.2585 28.9757 44.1834 27.7162V27.2484H63.6752C64.6914 28.5275 65.4252 30.0074 65.8283 31.5906ZM69.2648 65.2784C78.1051 61.0382 82.3693 53.5773 82.4593 45.0249C82.5133 39.2074 80.4621 35.6329 78.1651 33.7317C78.0291 33.6197 77.8892 33.5138 77.7453 33.4138C77.5941 32.733 77.4079 32.0603 77.1875 31.3986C76.7554 30.091 76.2074 28.8245 75.5502 27.6142C75.97 27.6742 76.3659 27.7462 76.7137 27.8181C83.125 29.1796 88.2829 32.97 90.7178 40.2809C92.703 46.2424 91.7434 53.6373 87.4732 59.5688C85.5353 62.0774 83.2515 64.2986 80.69 66.1661C80.1323 66.5619 79.7964 66.7658 79.2027 67.1556C83.0651 73.345 84.9722 76.9015 87.4372 83.6607C89.2044 88.7379 90.5445 93.9539 91.4435 99.2542C91.9773 103.638 93.2908 103.992 93.5906 104.052V104.52H78.1831V104.082C78.6569 103.83 82.8252 102.121 82.8432 95.5897C82.8432 90.7917 81.6976 85.5199 79.5625 79.5944C78.2662 76.1122 76.7353 72.7218 74.9804 69.4467L74.9325 69.3687C73.9107 69.8095 72.8656 70.1939 71.8018 70.5202C71.0041 68.661 70.1885 66.9877 69.2648 65.2844V65.2784ZM53.6234 64.7626V68.7629C56.3362 68.605 59.0365 68.2765 61.708 67.7793C62.4517 69.4586 63.0934 71.054 63.5433 72.2895L63.6032 72.4574C62.2538 72.6733 60.8204 72.8712 59.1951 73.0572C57 73.3031 54.8769 73.447 53.6234 73.5309V99.3981C53.6234 99.9678 53.7553 102.997 55.7405 104.082V104.55H43.9135V104.082C45.8387 103.069 46.0306 99.9678 46.0306 99.3981V66.148C48.5856 65.8323 51.1206 65.3718 53.6234 64.7686V64.7626ZM55.2607 22.9302H53.6054H38.2039V60.8643C39.7272 60.7983 45.4009 60.3185 49.1553 59.215C61.5821 55.5385 67.5196 46.8481 67.6155 36.6404C67.6695 30.7029 65.5764 27.0445 63.2314 25.1193C61.8327 24.0502 60.1785 23.3658 58.4334 23.1341C57.3838 22.9942 56.3256 22.9281 55.2667 22.9362L55.2607 22.9302ZM30.4551 92.1951V24.0277C30.4551 24.0277 30.677 20.2193 28.5539 18.9299V18.4501H54.9069C57.2013 18.4444 59.4915 18.6451 61.75 19.0498C68.2932 20.4412 73.553 24.3036 76.042 31.7645C78.0691 37.8459 77.0855 45.3967 72.7314 51.4482C70.7551 54.0116 68.4248 56.2813 65.8103 58.1894C65.2405 58.5972 64.8987 58.8251 64.2929 59.203C68.2333 65.5243 70.1825 69.1528 72.6894 76.0439C74.4925 81.2207 75.8607 86.5389 76.7797 91.9432C77.3254 96.4173 78.6629 96.8672 78.9688 96.9631V97.4429H63.2614V96.9631C63.7472 96.7052 67.9994 94.87 68.0174 88.2008C68.0174 83.3069 66.8179 77.9211 64.6708 71.8756C63.3469 68.3215 61.784 64.861 59.9927 61.518L59.9448 61.44C56.9163 62.6596 53.7798 63.5913 50.5767 64.2228C48.5315 64.6067 46.4564 64.9306 43.8895 65.2124C41.6524 65.4643 39.4873 65.6143 38.2099 65.6922V92.1831C38.2099 92.7828 38.3478 95.8716 40.375 96.9811V97.4549H28.29V96.9811C30.2632 95.9375 30.4551 92.7769 30.4551 92.1951Z" fill="#363535"/>
</svg>
