<svg width="132" height="132" viewBox="0 0 132 132" fill="none" xmlns="http://www.w3.org/2000/svg">
<path d="M66.0049 118.406L78.9316 45.7058C91.2529 45.7058 95.1394 47.0569 95.7005 52.5717C95.7005 52.5717 103.966 49.4898 108.135 43.2306C91.8669 35.6924 75.5214 35.3524 75.5214 35.3524L65.9834 46.9695L66.0049 46.968L56.467 35.3506C56.467 35.3506 40.1211 35.6909 23.8553 43.2291C28.0205 49.4884 36.2893 52.5703 36.2893 52.5703C36.8537 47.0551 40.7354 45.704 52.9741 45.6952L66.0049 118.406Z" fill="#E82127"/>
<path d="M66 31.9967C79.1503 31.8962 94.2023 34.031 109.611 40.7469C111.671 37.0401 112.2 35.4018 112.2 35.4018C95.356 28.7377 79.5817 26.4571 65.9982 26.3999C52.4153 26.4571 36.6418 28.7381 19.8 35.4018C19.8 35.4018 20.5513 37.4197 22.3871 40.7469C37.7929 34.031 52.8475 31.8962 65.9982 31.9967H66Z" fill="#E82127"/>
</svg>
