<svg width="32" height="32" viewBox="0 0 32 32" fill="none" xmlns="http://www.w3.org/2000/svg">
<path fill-rule="evenodd" clip-rule="evenodd" d="M27.3971 8.64432C27.1562 8.83255 27.0207 9.12432 27.0357 9.42925C27.0451 9.7022 27.0527 9.97513 27.0527 10.2518C27.0527 19.0914 20.8277 28.2377 10.4108 28.2377C8.37406 28.2377 6.36748 27.833 4.48136 27.0518C6.75524 26.6754 8.92183 25.6777 10.7308 24.1549C11.0301 23.9008 11.1411 23.4904 11.0112 23.1215C10.8814 22.7526 10.535 22.5022 10.1416 22.4928C8.38536 22.457 6.79476 21.4481 5.86866 19.8726C6.50299 19.8537 7.18631 19.754 7.69831 19.6052C8.11243 19.4848 8.39101 19.0989 8.37783 18.6697C8.36278 18.2387 8.05783 17.8735 7.63618 17.7812C5.76701 17.3765 4.39101 15.8349 3.92606 13.7172C4.46066 13.8245 4.96513 13.8584 5.24373 13.8659C5.65406 13.9111 6.03243 13.625 6.16794 13.2316C6.30161 12.8401 6.16418 12.4052 5.82724 12.1624C4.52654 11.225 3.13359 9.47632 3.13359 7.38877C3.13359 6.8749 3.19759 6.36667 3.31994 5.87537C6.57266 9.49513 11.0112 11.6805 15.7171 11.9347C16.0334 11.9516 16.295 11.8274 16.4851 11.6052C16.6752 11.3831 16.7505 11.0819 16.6903 10.7958C16.5962 10.3685 16.5491 9.9262 16.5491 9.4782C16.5491 6.32902 18.9002 3.76713 21.7896 3.76713C23.2428 3.76713 24.5943 4.39772 25.5919 5.54597C25.8141 5.80197 26.1642 5.92055 26.4955 5.84902C26.9736 5.74737 27.4442 5.61937 27.9072 5.46313C27.6324 5.74172 27.3294 5.9902 26.9999 6.2029C26.6291 6.44195 26.4748 6.90313 26.6254 7.31725C26.7759 7.73137 27.2014 7.98172 27.6305 7.92713C27.8752 7.89513 28.1181 7.85748 28.359 7.81043C28.0541 8.10595 27.7341 8.38455 27.3971 8.64432ZM31.7585 5.31632C31.4799 5.00572 31.0319 4.91915 30.6517 5.09608C30.5839 5.12808 30.5162 5.16008 30.4465 5.19208C30.7308 4.6876 30.9623 4.14737 31.1298 3.58078C31.2428 3.20432 31.1091 2.79772 30.7948 2.56055C30.4785 2.32525 30.0531 2.30643 29.7199 2.51913C28.7487 3.1422 27.7039 3.5996 26.6122 3.8876C25.3077 2.6076 23.5797 1.88477 21.7896 1.88477C17.863 1.88477 14.6668 5.29183 14.6668 9.4782C14.6668 9.63632 14.6705 9.79443 14.6799 9.95067C10.4334 9.40102 6.50866 7.08383 3.77738 3.47537C3.58538 3.22125 3.27479 3.09137 2.95668 3.10643C2.63668 3.1309 2.35056 3.31537 2.19808 3.59772C1.57879 4.74595 1.25126 6.05795 1.25126 7.38878C1.25126 8.83255 1.72938 10.1389 2.42209 11.2344C2.09833 11.385 1.87243 11.7107 1.87243 12.0909V12.1775C1.87243 14.5078 2.70256 16.5427 4.09738 17.9186C3.94679 17.9676 3.80938 18.0561 3.69833 18.1747C3.58826 18.2947 3.51117 18.4412 3.47455 18.5998C3.43793 18.7585 3.44304 18.924 3.48938 19.0801C4.16891 21.3634 5.78584 23.1158 7.79621 23.9102C5.74821 25.0697 3.31808 25.529 1.05549 25.2561C0.613143 25.1902 0.214076 25.4537 0.0616093 25.8566C-0.0927407 26.2612 0.050326 26.7206 0.407959 26.9653C3.40279 29.0283 6.86256 30.1201 10.4108 30.1201C22.0061 30.1201 28.935 20.0175 28.935 10.2518C28.935 10.1088 28.9331 9.9676 28.9294 9.82643C30.072 8.87395 31.0545 7.73702 31.8583 6.44195C32.0786 6.0862 32.039 5.6269 31.7585 5.31632Z" fill="#EF1D26"/>
</svg>
