<svg width="206" height="240" viewBox="0 0 206 240" fill="none" xmlns="http://www.w3.org/2000/svg">
<path opacity="0.2" fill-rule="evenodd" clip-rule="evenodd" d="M175.688 8.37421e-05L177.137 1.44843C177.155 1.46654 177.174 1.48499 177.192 1.50374L205.235 29.5472L149.024 227.585L113.554 239.417L-32.7041 93.1586L-22.3493 56.2113L175.688 8.37421e-05ZM130.255 158.558L172.914 5.13193L146.143 12.7306L135.483 49.7917L135.543 50.0104L135.41 50.0469L110.021 138.323L130.255 158.558ZM133.333 163.09C133.243 163.44 133.061 163.771 132.787 164.045C131.97 164.861 130.647 164.862 129.831 164.046L66.3889 100.604L34.0365 109.641L146.294 221.898L200.544 30.769L176.741 6.96587L133.333 163.09ZM71.0106 99.3128L106.643 134.945L120.9 85.3772L71.0106 99.3128ZM-0.626722 119.323L29.4148 110.932L143.504 225.021L114.685 234.634L-0.626722 119.323ZM122.247 80.6917C122.133 80.7039 122.018 80.7257 121.904 80.7576L-4.01846 115.931L-25.7278 94.2222L130.689 51.3411L122.247 80.6917ZM132.042 46.6368L-27.5906 90.3995L-18.9567 59.5926L141.408 14.0746L132.042 46.6368Z" fill="url(#paint0_radial_1_1031)" fill-opacity="0.6"/>
<defs>
<radialGradient id="paint0_radial_1_1031" cx="0" cy="0" r="1" gradientTransform="matrix(-60.6316 152.228 -173.083 -68.8559 113.596 91.6393)" gradientUnits="userSpaceOnUse">
<stop stop-color="#2A4C9B"/>
<stop offset="1" stop-color="#299FD9"/>
</radialGradient>
</defs>
</svg>
