<svg width="25" height="25" viewBox="0 0 25 25" fill="none" xmlns="http://www.w3.org/2000/svg">
<path d="M9.256 7.4693C9.44658 7.4744 9.65787 7.48471 9.8589 7.93094C9.9922 8.22801 10.2168 8.77488 10.3997 9.22036C10.5421 9.56702 10.6592 9.85228 10.6884 9.91066C10.7554 10.044 10.7967 10.1978 10.7091 10.3773C10.6988 10.3985 10.6891 10.4187 10.6796 10.4382C10.6094 10.584 10.5594 10.6879 10.4412 10.8235C10.3926 10.8793 10.342 10.9405 10.2915 11.0014C10.2029 11.1086 10.1147 11.2151 10.0392 11.2903C9.90526 11.4235 9.76608 11.5673 9.92065 11.8339C10.0753 12.1006 10.6164 12.9777 11.4151 13.6854C12.2738 14.4499 13.0204 14.7721 13.3979 14.9349C13.4712 14.9665 13.5305 14.9922 13.5741 15.0138C13.8421 15.1472 14.0018 15.1266 14.1564 14.9472C14.311 14.7676 14.8263 14.1675 15.0067 13.9008C15.1819 13.6341 15.3622 13.6752 15.6096 13.7675C15.8569 13.8598 17.176 14.506 17.444 14.6393C17.4969 14.6657 17.5465 14.6895 17.5924 14.7115C17.7788 14.8009 17.9055 14.8616 17.9593 14.9523C18.0263 15.0651 18.0263 15.5985 17.8047 16.2242C17.578 16.8499 16.4855 17.45 15.9908 17.4961C15.944 17.5006 15.8974 17.5062 15.8494 17.512C15.396 17.5669 14.8206 17.6364 12.7702 16.8294C10.2438 15.8359 8.57607 13.3709 8.23889 12.8726C8.21228 12.8332 8.19394 12.8061 8.18415 12.793L8.17844 12.7854C8.02504 12.5801 7.08655 11.3243 7.08655 10.0287C7.08655 8.78906 7.6972 8.14368 7.97572 7.84932C7.99338 7.83066 8.00969 7.81342 8.02444 7.79752C8.27175 7.53086 8.56036 7.46419 8.74068 7.46419C8.9211 7.46419 9.10142 7.46419 9.256 7.4693Z" fill="#EF1D26"/>
<path fill-rule="evenodd" clip-rule="evenodd" d="M2.27514 22.2202C2.18991 22.5296 2.47167 22.8151 2.78214 22.7341L7.58145 21.4805C9.09641 22.301 10.802 22.737 12.5386 22.737H12.5438C18.2584 22.737 22.9166 18.1057 22.9166 12.4128C22.9166 9.65349 21.8395 7.05827 19.8815 5.10928C17.9234 3.16039 15.3212 2.08333 12.5437 2.08333C6.82919 2.08333 2.1709 6.71464 2.1709 12.4077C2.17024 14.2188 2.64828 15.9981 3.55702 17.5672L2.27514 22.2202ZM5.06341 17.9822C5.17468 17.5783 5.11909 17.1467 4.90913 16.7841C4.13814 15.4529 3.73285 13.9432 3.7334 12.4077C3.7334 7.58498 7.68472 3.64583 12.5437 3.64583C14.9082 3.64583 17.1141 4.55935 18.7792 6.21672C20.4425 7.87226 21.3541 10.0689 21.3541 12.4128C21.3541 17.2353 17.4029 21.1745 12.5438 21.1745H12.5386C11.0631 21.1745 9.61311 20.804 8.32564 20.1066C7.97718 19.9178 7.57001 19.8685 7.18658 19.9688L4.30908 20.7203L5.06341 17.9822Z" fill="#EF1D26"/>
</svg>
