<svg width="32" height="32" viewBox="0 0 32 32" fill="none" xmlns="http://www.w3.org/2000/svg">
<path fill-rule="evenodd" clip-rule="evenodd" d="M12.696 20.1813L12.695 11.1265L21.341 15.6695L12.696 20.1813ZM31.68 9.55741C31.68 9.55741 31.367 7.33678 30.408 6.35889C29.191 5.07484 27.827 5.06879 27.202 4.99426C22.724 4.66796 16.007 4.66797 16.007 4.66797H15.993C15.993 4.66797 9.276 4.66796 4.798 4.99426C4.172 5.06879 2.809 5.07484 1.591 6.35889C0.632003 7.33678 0.319997 9.55741 0.319997 9.55741C0.319997 9.55741 0 12.1658 0 14.7732V17.2184C0 19.8268 0.319997 22.4341 0.319997 22.4341C0.319997 22.4341 0.632003 24.6548 1.591 25.6326C2.809 26.9167 4.408 26.8764 5.12 27.0104C7.68 27.2581 16 27.3346 16 27.3346C16 27.3346 22.724 27.3246 27.202 26.9983C27.827 26.9227 29.191 26.9167 30.408 25.6326C31.367 24.6548 31.68 22.4341 31.68 22.4341C31.68 22.4341 32 19.8268 32 17.2184V14.7732C32 12.1658 31.68 9.55741 31.68 9.55741Z" fill="#CE1312"/>
</svg>
